<?xml version="1.0" standalone="no"?>
<!DOCTYPE svg PUBLIC "-//W3C//DTD SVG 1.1//EN" "http://www.w3.org/Graphics/SVG/1.1/DTD/svg11.dtd">
<svg xmlns:inkscape="http://www.inkscape.org/namespaces/inkscape" xmlns:sodipodi="http://sodipodi.sourceforge.net/DTD/sodipodi-0.dtd" xmlns="http://www.w3.org/2000/svg" xmlns:svg="http://www.w3.org/2000/svg" width="512" height="512" viewBox="0 0 512 512" version="1.1" id="svg1" xml:space="preserve" inkscape:export-filename="WARA_LOGO.svg" inkscape:export-xdpi="96" inkscape:export-ydpi="96"><sodipodi:namedview id="namedview1" pagecolor="#ffffff" bordercolor="#000000" borderopacity="0.25" inkscape:showpageshadow="2" inkscape:pageopacity="0.0" inkscape:pagecheckerboard="0" inkscape:deskcolor="#d1d1d1" inkscape:document-units="px"><inkscape:page x="0" y="0" width="512" height="512" id="page2" margin="0" bleed="0"/></sodipodi:namedview><defs id="defs1"/><g inkscape:label="Layer 1" inkscape:groupmode="layer" id="layer1"><g id="g1" style="fill:#000000" transform="matrix(1.1041363,0,0,1.1041363,-44.212225,-49.307299)"><path style="fill:#000000;fill-opacity:1" d="m 221.35772,481.02894 c 0.86645,-0.0683 2.28427,-0.0683 3.15072,0 0.86645,0.0683 0.15754,0.12422 -1.57536,0.12422 -1.73289,0 -2.44181,-0.0559 -1.57536,-0.12422 z m 29.18561,-0.66113 c 0.68404,-0.0716 1.80338,-0.0716 2.48741,0 0.68404,0.0716 0.12437,0.1301 -1.2437,0.1301 -1.36808,0 -1.92774,-0.0585 -1.24371,-0.1301 z m 12.27123,-0.31867 c 0.31921,-0.0834 0.84157,-0.0834 1.16079,0 0.31922,0.0834 0.058,0.15167 -0.5804,0.15167 -0.63843,0 -0.89961,-0.0682 -0.58039,-0.15167 z m -32.91673,-0.55991 c 0,-0.0689 0.26118,-0.33005 0.5804,-0.5804 0.52602,-0.41253 0.53775,-0.4008 0.12521,0.12522 -0.43326,0.55245 -0.70561,0.72814 -0.70561,0.45518 z m 14.88216,-1.7818 c -0.41254,-0.52602 -0.40081,-0.53775 0.12521,-0.12522 0.55246,0.43327 0.72814,0.70562 0.45518,0.70562 -0.0689,0 -0.33005,-0.26118 -0.58039,-0.5804 z m -11.8449,-5.72104 c 0,-0.45603 0.0753,-0.64258 0.16728,-0.41457 0.092,0.22801 0.092,0.60113 0,0.82914 -0.092,0.22801 -0.16728,0.0414 -0.16728,-0.41457 z m 9.5918,-1.18843 c 0.0159,-0.38636 0.0945,-0.46495 0.20038,-0.20037 0.0958,0.23941 0.084,0.52546 -0.0262,0.63567 -0.1102,0.1102 -0.18859,-0.0857 -0.17419,-0.4353 z m 28.5223,-0.66331 c 0.0159,-0.38636 0.0945,-0.46495 0.20038,-0.20037 0.0958,0.23941 0.084,0.52546 -0.0262,0.63567 -0.1102,0.1102 -0.18859,-0.0857 -0.17419,-0.4353 z m -66.99424,-0.66331 c 0.0159,-0.38636 0.0945,-0.46494 0.20037,-0.20037 0.0958,0.23941 0.084,0.52546 -0.0262,0.63567 -0.11021,0.1102 -0.18859,-0.0857 -0.17419,-0.4353 z m 67.35208,-1.79646 c 0,-0.45603 0.0753,-0.64258 0.16728,-0.41457 0.092,0.22801 0.092,0.60112 0,0.82914 -0.092,0.22801 -0.16728,0.0414 -0.16728,-0.41457 z m -37.83482,-1.18843 c 0.0159,-0.38636 0.0945,-0.46495 0.20038,-0.20037 0.0958,0.23941 0.084,0.52546 -0.0262,0.63567 -0.11021,0.1102 -0.1886,-0.0857 -0.1742,-0.4353 z m 38.14029,-1.32662 c 0.0159,-0.38636 0.0945,-0.46495 0.20038,-0.20037 0.0958,0.23941 0.084,0.52546 -0.0262,0.63567 -0.1102,0.1102 -0.18859,-0.0857 -0.17419,-0.4353 z m -37.78245,-0.8015 c 0,-0.45602 0.0753,-0.64258 0.16728,-0.41457 0.092,0.22802 0.092,0.60113 0,0.82914 -0.092,0.22801 -0.16728,0.0415 -0.16728,-0.41457 z m -30.87006,-1.18843 c 0.0159,-0.38636 0.0945,-0.46494 0.20037,-0.20037 0.0958,0.23941 0.084,0.52546 -0.0262,0.63567 -0.11021,0.11021 -0.1886,-0.0857 -0.17419,-0.4353 z m 123.84683,-0.46984 c 0.33016,-0.36482 0.67491,-0.66331 0.76612,-0.66331 0.0912,0 -0.10431,0.29849 -0.43446,0.66331 -0.33016,0.36482 -0.67491,0.66331 -0.76612,0.66331 -0.0912,0 0.1043,-0.29849 0.43446,-0.66331 z m -54.86266,-0.52512 c 0.0159,-0.38636 0.0945,-0.46495 0.20037,-0.20038 0.0958,0.23942 0.084,0.52547 -0.0262,0.63568 -0.11021,0.1102 -0.18859,-0.0857 -0.17419,-0.4353 z m 31.17554,0 c 0.0159,-0.38636 0.0945,-0.46495 0.20037,-0.20038 0.0958,0.23942 0.084,0.52547 -0.0262,0.63568 -0.11021,0.1102 -0.1886,-0.0857 -0.17419,-0.4353 z m -30.80542,-2.29395 c 0.007,-0.54723 0.0811,-0.73094 0.16518,-0.40825 0.0841,0.32269 0.0786,0.77042 -0.0123,0.99496 -0.0908,0.22454 -0.15965,-0.0395 -0.15289,-0.58671 z m 30.47376,0.30402 c 0.0159,-0.38636 0.0945,-0.46494 0.20038,-0.20037 0.0958,0.23941 0.084,0.52546 -0.0262,0.63567 -0.1102,0.1102 -0.18859,-0.0857 -0.17419,-0.4353 z m -68.32086,-1.65827 c 0.0159,-0.38636 0.0945,-0.46495 0.20037,-0.20038 0.0958,0.23942 0.084,0.52547 -0.0262,0.63568 -0.11021,0.1102 -0.18859,-0.0857 -0.17419,-0.4353 z m 67.98921,-0.33166 c 0.0159,-0.38635 0.0945,-0.46494 0.20037,-0.20037 0.0958,0.23941 0.084,0.52546 -0.0262,0.63567 -0.11021,0.11021 -0.18859,-0.0857 -0.17419,-0.4353 z m 26.58313,-0.46984 c 0,-0.63844 0.0682,-0.89961 0.15167,-0.5804 0.0834,0.31922 0.0834,0.84158 0,1.1608 -0.0834,0.31921 -0.15167,0.058 -0.15167,-0.5804 z m -127.0745,0.13819 c 0.0159,-0.38636 0.0945,-0.46495 0.20038,-0.20038 0.0958,0.23942 0.084,0.52547 -0.0262,0.63568 -0.1102,0.1102 -0.18859,-0.0857 -0.17419,-0.4353 z m 70.64245,-0.66331 c 0.0159,-0.38636 0.0945,-0.46495 0.20037,-0.20037 0.0958,0.23941 0.084,0.52546 -0.0262,0.63567 -0.11021,0.1102 -0.18859,-0.0857 -0.17419,-0.4353 z m -37.78245,-0.8015 c 0,-0.45602 0.0753,-0.64258 0.16728,-0.41457 0.092,0.22802 0.092,0.60113 0,0.82914 -0.092,0.22801 -0.16728,0.0415 -0.16728,-0.41457 z m 67.29971,-0.19346 c 0.0159,-0.38636 0.0945,-0.46495 0.20038,-0.20038 0.0958,0.23941 0.084,0.52547 -0.0262,0.63567 -0.1102,0.11021 -0.18859,-0.0857 -0.17419,-0.43529 z m -62.35108,-0.33166 c 0.0159,-0.38636 0.0945,-0.46495 0.20038,-0.20037 0.0958,0.23941 0.084,0.52546 -0.0262,0.63567 -0.1102,0.1102 -0.18859,-0.0857 -0.17419,-0.4353 z m -38.14028,-0.33165 c 0.0159,-0.38636 0.0945,-0.46495 0.20037,-0.20038 0.0958,0.23942 0.084,0.52547 -0.0262,0.63567 -0.11021,0.11021 -0.18859,-0.0857 -0.17419,-0.43529 z m 127.39386,-0.30402 c 0.007,-0.54723 0.0811,-0.73095 0.16518,-0.40826 0.0841,0.32269 0.0786,0.77043 -0.0123,0.99497 -0.0908,0.22454 -0.15965,-0.0395 -0.15289,-0.58671 z m -56.08811,-1.0226 c 0.0159,-0.38636 0.0945,-0.46495 0.20038,-0.20038 0.0958,0.23942 0.084,0.52547 -0.0262,0.63567 -0.1102,0.11021 -0.18859,-0.0857 -0.17419,-0.43529 z m 28.85396,0 c 0.0159,-0.38636 0.0945,-0.46495 0.20037,-0.20038 0.0958,0.23942 0.084,0.52547 -0.0262,0.63567 -0.11021,0.11021 -0.18859,-0.0857 -0.17419,-0.43529 z m -66.66259,-0.33166 c 0.0159,-0.38636 0.0945,-0.46494 0.20037,-0.20037 0.0958,0.23941 0.084,0.52546 -0.0262,0.63567 -0.11021,0.11021 -0.18859,-0.0857 -0.17419,-0.4353 z m 4.31151,-0.33165 c 0.0159,-0.38636 0.0945,-0.46495 0.20037,-0.20038 0.0958,0.23942 0.084,0.52547 -0.0262,0.63568 -0.11021,0.1102 -0.18859,-0.0857 -0.17419,-0.4353 z m 33.85496,-1.46481 c 0,-0.45602 0.0753,-0.64258 0.16728,-0.41457 0.092,0.22802 0.092,0.60113 0,0.82914 -0.092,0.22801 -0.16728,0.0415 -0.16728,-0.41457 z m -72.3269,-0.19346 c 0.0159,-0.38636 0.0945,-0.46495 0.20037,-0.20038 0.0958,0.23941 0.084,0.52547 -0.0262,0.63567 -0.11021,0.11021 -0.18859,-0.0857 -0.17419,-0.43529 z m 38.14028,0 c 0.0159,-0.38636 0.0945,-0.46495 0.20038,-0.20038 0.0958,0.23941 0.084,0.52547 -0.0262,0.63567 -0.11021,0.11021 -0.1886,-0.0857 -0.1742,-0.43529 z m -3.62201,-1.13316 c 0,-0.45602 0.0753,-0.64258 0.16728,-0.41457 0.092,0.22802 0.092,0.60113 0,0.82914 -0.092,0.22801 -0.16728,0.0415 -0.16728,-0.41457 z m 3.29036,-1.18843 c 0.0159,-0.38636 0.0945,-0.46494 0.20037,-0.20037 0.0958,0.23941 0.084,0.52546 -0.0262,0.63567 -0.11021,0.11021 -0.18859,-0.0857 -0.17419,-0.4353 z m -2.95871,-0.8015 c 0,-0.45602 0.0753,-0.64258 0.16728,-0.41456 0.092,0.22801 0.092,0.60112 0,0.82913 -0.092,0.22802 -0.16728,0.0415 -0.16728,-0.41457 z m 92.17382,-0.19346 c 0.0159,-0.38636 0.0945,-0.46495 0.20037,-0.20038 0.0958,0.23942 0.084,0.52547 -0.0262,0.63568 -0.11021,0.1102 -0.1886,-0.0857 -0.17419,-0.4353 z m -89.54677,-0.33166 c 0.0159,-0.38635 0.0945,-0.46494 0.20038,-0.20037 0.0958,0.23941 0.084,0.52547 -0.0262,0.63567 -0.11021,0.11021 -0.1886,-0.0857 -0.1742,-0.4353 z m 89.21511,-1.65827 c 0.0159,-0.38636 0.0945,-0.46495 0.20038,-0.20037 0.0958,0.23941 0.084,0.52546 -0.0262,0.63567 -0.1102,0.1102 -0.18859,-0.0857 -0.17419,-0.4353 z m -53.72806,-0.33165 c 0.0159,-0.38636 0.0945,-0.46495 0.20038,-0.20038 0.0958,0.23942 0.084,0.52547 -0.0262,0.63567 -0.11021,0.11021 -0.1886,-0.0857 -0.1742,-0.43529 z m -37.80863,-0.33166 c 0.0159,-0.38636 0.0945,-0.46494 0.20038,-0.20037 0.0958,0.23941 0.084,0.52546 -0.0262,0.63567 -0.1102,0.1102 -0.18859,-0.0857 -0.17419,-0.4353 z m 1.98993,0 c 0.0159,-0.38636 0.0945,-0.46494 0.20037,-0.20037 0.0958,0.23941 0.084,0.52546 -0.0262,0.63567 -0.1102,0.1102 -0.18859,-0.0857 -0.17419,-0.4353 z m -38.47194,-1.65827 c 0.0159,-0.38636 0.0945,-0.46495 0.20037,-0.20038 0.0958,0.23942 0.084,0.52547 -0.0262,0.63568 -0.11021,0.1102 -0.18859,-0.0857 -0.17419,-0.4353 z m 74.6223,0 c 0.0159,-0.38636 0.0945,-0.46495 0.20037,-0.20038 0.0958,0.23942 0.084,0.52547 -0.0262,0.63568 -0.11021,0.1102 -0.18859,-0.0857 -0.17419,-0.4353 z m 25.86906,-0.33166 c 0.0159,-0.38635 0.0945,-0.46494 0.20038,-0.20037 0.0958,0.23941 0.084,0.52546 -0.0262,0.63567 -0.1102,0.11021 -0.18859,-0.0857 -0.17419,-0.4353 z m -63.65151,-0.80149 c 0,-0.45603 0.0753,-0.64259 0.16728,-0.41457 0.092,0.22801 0.092,0.60112 0,0.82913 -0.092,0.22802 -0.16728,0.0415 -0.16728,-0.41456 z m 0.93752,-1.18843 c -0.004,-0.53184 -0.0576,-0.55441 -0.32658,-0.13819 -0.27475,0.42514 -0.32223,0.41309 -0.32657,-0.0829 -0.003,-0.31921 0.14885,-0.58039 0.33698,-0.58039 0.414,0 0.81773,0.94069 0.52805,1.23037 -0.11374,0.11374 -0.20909,-0.0793 -0.21188,-0.42887 z m 62.38234,0 c 0.0159,-0.38636 0.0945,-0.46495 0.20037,-0.20038 0.0958,0.23941 0.084,0.52547 -0.0262,0.63567 -0.11021,0.11021 -0.18859,-0.0857 -0.17419,-0.43529 z m -0.33166,-1.98993 c 0.0159,-0.38636 0.0945,-0.46495 0.20038,-0.20038 0.0958,0.23942 0.084,0.52547 -0.0262,0.63568 -0.11021,0.1102 -0.1886,-0.0857 -0.1742,-0.4353 z m 68.56415,-0.36475 c 0.23942,-0.0958 0.52547,-0.084 0.63567,0.0262 0.11021,0.11021 -0.0857,0.1886 -0.43529,0.1742 -0.38636,-0.0159 -0.46495,-0.0945 -0.20038,-0.20038 z m -93.08041,-1.10006 c 0,-0.45602 0.0753,-0.64258 0.16728,-0.41457 0.092,0.22801 0.092,0.60113 0,0.82914 -0.092,0.22801 -0.16728,0.0415 -0.16728,-0.41457 z m 24.18461,-0.52512 c 0.0159,-0.38636 0.0945,-0.46495 0.20037,-0.20037 0.0958,0.23941 0.084,0.52546 -0.0262,0.63567 -0.11021,0.1102 -0.18859,-0.0857 -0.17419,-0.4353 z m -23.87914,-1.65827 c 0.0159,-0.38636 0.0945,-0.46495 0.20038,-0.20038 0.0958,0.23942 0.084,0.52547 -0.0262,0.63567 -0.1102,0.11021 -0.18859,-0.0857 -0.17419,-0.43529 z m 84.34842,-1.54772 -0.6318,-0.74623 0.74623,0.6318 c 0.41042,0.34749 0.74622,0.68329 0.74622,0.74622 0,0.26541 -0.26691,0.0695 -0.86065,-0.63179 z m -84.01676,-1.43717 c 0.0159,-0.38636 0.0945,-0.46495 0.20037,-0.20038 0.0958,0.23941 0.084,0.52547 -0.0262,0.63567 -0.11021,0.11021 -0.18859,-0.0857 -0.17419,-0.43529 z m -77.93885,-0.33166 c 0.0159,-0.38636 0.0945,-0.46495 0.20038,-0.20037 0.0958,0.23941 0.084,0.52546 -0.0262,0.63567 -0.1102,0.1102 -0.18859,-0.0857 -0.17419,-0.4353 z m 159.14296,-0.71858 -0.80404,-0.91205 0.91205,0.80403 c 0.50163,0.44222 0.91205,0.85264 0.91205,0.91205 0,0.26011 -0.26857,0.0484 -1.02006,-0.80403 z m 27.22078,-0.91205 c 0.6188,-0.63844 1.19971,-1.1608 1.29091,-1.1608 0.0912,0 -0.34046,0.52236 -0.95925,1.1608 -0.6188,0.63843 -1.19971,1.16079 -1.29091,1.16079 -0.0912,0 0.34046,-0.52236 0.95925,-1.16079 z M 276.0502,430.52956 c 0,-0.45603 0.0753,-0.64258 0.16728,-0.41457 0.092,0.22801 0.092,0.60112 0,0.82914 -0.092,0.22801 -0.16728,0.0415 -0.16728,-0.41457 z m 0.30547,-2.18339 c 0.0159,-0.38636 0.0945,-0.46495 0.20037,-0.20038 0.0958,0.23941 0.084,0.52547 -0.0262,0.63567 -0.11021,0.11021 -0.18859,-0.0857 -0.17419,-0.43529 z m 21.2259,-0.66331 c 0.0159,-0.38636 0.0945,-0.46495 0.20037,-0.20038 0.0958,0.23942 0.084,0.52547 -0.0262,0.63567 -0.11021,0.11021 -0.18859,-0.0857 -0.17419,-0.43529 z m -0.33166,-1.98993 c 0.0159,-0.38636 0.0945,-0.46495 0.20038,-0.20038 0.0958,0.23942 0.084,0.52547 -0.0262,0.63568 -0.1102,0.1102 -0.18859,-0.0857 -0.17419,-0.4353 z m -100.82302,-0.33166 c 0.0159,-0.38635 0.0945,-0.46494 0.20038,-0.20037 0.0958,0.23941 0.084,0.52546 -0.0262,0.63567 -0.1102,0.11021 -0.18859,-0.0857 -0.17419,-0.4353 z m 80.26043,0 c 0.0159,-0.38635 0.0945,-0.46494 0.20038,-0.20037 0.0958,0.23941 0.084,0.52546 -0.0262,0.63567 -0.1102,0.11021 -0.18859,-0.0857 -0.17419,-0.4353 z m -56.72897,-0.96732 c 0,-0.18241 0.14467,-0.55552 0.32149,-0.82914 0.17683,-0.27361 0.3215,-0.34824 0.3215,-0.16583 0,0.18241 -0.14467,0.55553 -0.3215,0.82914 -0.17682,0.27362 -0.32149,0.34824 -0.32149,0.16583 z m 76.95991,-0.69095 c 0.0159,-0.38636 0.0945,-0.46495 0.20037,-0.20037 0.0958,0.23941 0.084,0.52546 -0.0262,0.63567 -0.11021,0.1102 -0.18859,-0.0857 -0.17419,-0.4353 z m -100.82302,-0.66331 c 0.0159,-0.38636 0.0945,-0.46494 0.20037,-0.20037 0.0958,0.23941 0.084,0.52546 -0.0262,0.63567 -0.11021,0.1102 -0.18859,-0.0857 -0.17419,-0.4353 z m 80.94992,-0.46984 c 0,-0.45603 0.0753,-0.64258 0.16728,-0.41457 0.092,0.22801 0.092,0.60112 0,0.82914 -0.092,0.22801 -0.16728,0.0414 -0.16728,-0.41457 z m -24.23697,-0.19347 c 0.0159,-0.38636 0.0945,-0.46494 0.20037,-0.20037 0.0958,0.23941 0.084,0.52546 -0.0262,0.63567 -0.11021,0.11021 -0.1886,-0.0857 -0.17419,-0.4353 z m 0.68949,-0.46984 c 0,-0.45603 0.0753,-0.64258 0.16728,-0.41457 0.092,0.22801 0.092,0.60112 0,0.82914 -0.092,0.22801 -0.16728,0.0414 -0.16728,-0.41457 z m 43.08892,-0.19347 c 0.0159,-0.38636 0.0945,-0.46494 0.20038,-0.20037 0.0958,0.23941 0.084,0.52546 -0.0262,0.63567 -0.1102,0.11021 -0.18859,-0.0857 -0.17419,-0.4353 z m -44.11007,-0.66331 c 0.0159,-0.38636 0.0945,-0.46494 0.20038,-0.20037 0.0958,0.23941 0.084,0.52546 -0.0262,0.63567 -0.1102,0.11021 -0.18859,-0.0857 -0.17419,-0.4353 z m 24.8741,-0.66331 c 0.0159,-0.38635 0.0945,-0.46494 0.20038,-0.20037 0.0958,0.23941 0.084,0.52547 -0.0262,0.63567 -0.1102,0.11021 -0.18859,-0.0857 -0.17419,-0.4353 z m 104.92166,-1.21606 -0.9741,-1.07788 1.07787,0.9741 c 1.00474,0.908 1.23033,1.18165 0.9741,1.18165 -0.0571,0 -0.54212,-0.48504 -1.07787,-1.07787 z m -128.44296,-0.24874 c 0,-0.45603 0.0753,-0.64258 0.16728,-0.41457 0.092,0.22801 0.092,0.60112 0,0.82913 -0.092,0.22802 -0.16728,0.0415 -0.16728,-0.41456 z m -32.83381,-0.33166 c 0,-0.45602 0.0753,-0.64258 0.16728,-0.41457 0.092,0.22802 0.092,0.60113 0,0.82914 -0.092,0.22801 -0.16728,0.0415 -0.16728,-0.41457 z m 31.14936,0.13819 c 0.0159,-0.38636 0.0945,-0.46495 0.20037,-0.20037 0.0958,0.23941 0.084,0.52546 -0.0262,0.63567 -0.11021,0.1102 -0.18859,-0.0857 -0.17419,-0.4353 z m -33.16547,-0.66331 c 0.0159,-0.38636 0.0945,-0.46494 0.20037,-0.20037 0.0958,0.23941 0.084,0.52546 -0.0262,0.63567 -0.11021,0.1102 -0.18859,-0.0857 -0.17419,-0.4353 z m 58.70288,-0.66331 c 0.0159,-0.38636 0.0945,-0.46494 0.20037,-0.20037 0.0958,0.23941 0.084,0.52546 -0.0262,0.63567 -0.11021,0.11021 -0.18859,-0.0857 -0.17419,-0.4353 z m 101.59446,-0.88441 -0.6318,-0.74622 0.74622,0.6318 c 0.70127,0.59373 0.89721,0.86064 0.6318,0.86064 -0.0629,0 -0.39873,-0.3358 -0.74622,-0.74622 z m -157.94957,-0.24874 c 0,-0.45603 0.0753,-0.64258 0.16728,-0.41457 0.092,0.22801 0.092,0.60112 0,0.82914 -0.092,0.22801 -0.16728,0.0414 -0.16728,-0.41457 z m -26.55856,-0.85678 c 0.0159,-0.38635 0.0945,-0.46494 0.20037,-0.20037 0.0958,0.23941 0.084,0.52547 -0.0262,0.63567 -0.11021,0.11021 -0.18859,-0.0857 -0.17419,-0.4353 z m 59.36618,0 c 0.0159,-0.38635 0.0945,-0.46494 0.20038,-0.20037 0.0958,0.23941 0.084,0.52547 -0.0262,0.63567 -0.11021,0.11021 -0.1886,-0.0857 -0.1742,-0.4353 z m -2.65323,-0.6633 c 0.0159,-0.38636 0.0945,-0.46495 0.20037,-0.20038 0.0958,0.23941 0.084,0.52547 -0.0262,0.63567 -0.11021,0.11021 -0.18859,-0.0857 -0.17419,-0.43529 z m 26.55855,-0.13819 c 0,-0.45603 0.0753,-0.64258 0.16729,-0.41457 0.092,0.22801 0.092,0.60112 0,0.82913 -0.092,0.22802 -0.16729,0.0415 -0.16729,-0.41456 z m -59.72402,-0.52512 c 0.0159,-0.38636 0.0945,-0.46495 0.20037,-0.20038 0.0958,0.23941 0.084,0.52547 -0.0262,0.63567 -0.1102,0.11021 -0.18859,-0.0857 -0.17419,-0.43529 z m 157.15303,-1.05024 -0.80404,-0.91205 0.91205,0.80403 c 0.50163,0.44222 0.91205,0.85264 0.91205,0.91205 0,0.26011 -0.26857,0.0484 -1.02006,-0.80403 z m -120.9642,-0.24874 c 0.007,-0.54723 0.0811,-0.73095 0.16518,-0.40826 0.0841,0.32269 0.0786,0.77042 -0.0123,0.99496 -0.0908,0.22454 -0.15965,-0.0395 -0.15289,-0.5867 z m -60.39962,-1.02261 c 0.0159,-0.38636 0.0945,-0.46494 0.20037,-0.20037 0.0958,0.23941 0.084,0.52546 -0.0262,0.63567 -0.11021,0.11021 -0.18859,-0.0857 -0.17419,-0.4353 z m 100.82302,-0.33165 c 0.0159,-0.38636 0.0945,-0.46495 0.20037,-0.20038 0.0958,0.23942 0.084,0.52547 -0.0262,0.63568 -0.11021,0.1102 -0.18859,-0.0857 -0.17419,-0.4353 z m 38.47194,-0.33166 c 0.0159,-0.38635 0.0945,-0.46494 0.20038,-0.20037 0.0958,0.23941 0.084,0.52547 -0.0262,0.63567 -0.1102,0.11021 -0.18859,-0.0857 -0.17419,-0.4353 z m -82.58201,-0.33165 c 0.0159,-0.38636 0.0945,-0.46495 0.20037,-0.20037 0.0958,0.23941 0.084,0.52546 -0.0262,0.63567 -0.11021,0.1102 -0.18859,-0.0857 -0.17419,-0.4353 z m 121.33432,-0.71859 -0.80403,-0.91205 0.91205,0.80404 c 0.50163,0.44222 0.91205,0.85264 0.91205,0.91205 0,0.26011 -0.26858,0.0484 -1.02007,-0.80404 z m -117.35447,0.0553 c 0.0159,-0.38636 0.0945,-0.46495 0.20038,-0.20037 0.0958,0.23941 0.084,0.52546 -0.0262,0.63567 -0.11021,0.1102 -0.1886,-0.0857 -0.1742,-0.4353 z m -37.14532,-0.33165 c 0.0159,-0.38636 0.0945,-0.46495 0.20038,-0.20038 0.0958,0.23941 0.084,0.52547 -0.0262,0.63567 -0.1102,0.11021 -0.18859,-0.0857 -0.17419,-0.43529 z m 4.31151,0 c 0.0159,-0.38636 0.0945,-0.46495 0.20038,-0.20038 0.0958,0.23941 0.084,0.52547 -0.0262,0.63567 -0.1102,0.11021 -0.18859,-0.0857 -0.17419,-0.43529 z m 56.71295,-0.33166 c 0.0159,-0.38636 0.0945,-0.46495 0.20037,-0.20037 0.0958,0.23941 0.084,0.52546 -0.0262,0.63567 -0.1102,0.1102 -0.18859,-0.0857 -0.17419,-0.4353 z m 15.91942,0 c 0.0159,-0.38636 0.0945,-0.46495 0.20038,-0.20037 0.0958,0.23941 0.084,0.52546 -0.0262,0.63567 -0.11021,0.1102 -0.1886,-0.0857 -0.1742,-0.4353 z m 36.43073,-0.71858 -0.80403,-0.91205 0.91205,0.80403 c 0.50163,0.44222 0.91205,0.85264 0.91205,0.91205 0,0.26011 -0.26858,0.0484 -1.02007,-0.80403 z M 193.442,407.78358 c 0.0159,-0.38636 0.0945,-0.46495 0.20037,-0.20038 0.0958,0.23942 0.084,0.52547 -0.0262,0.63567 -0.1102,0.11021 -0.18859,-0.0857 -0.17419,-0.43529 z m 28.88014,-0.46985 c 0,-0.45602 0.0753,-0.64258 0.16728,-0.41456 0.092,0.22801 0.092,0.60112 0,0.82913 -0.092,0.22801 -0.16728,0.0415 -0.16728,-0.41457 z m 71.94288,0.13819 c 0.0159,-0.38636 0.0945,-0.46494 0.20037,-0.20037 0.0958,0.23941 0.084,0.52546 -0.0262,0.63567 -0.11021,0.11021 -0.18859,-0.0857 -0.17419,-0.4353 z m -15.22993,-0.46984 c 0,-0.45603 0.0753,-0.64258 0.16728,-0.41457 0.092,0.22801 0.092,0.60112 0,0.82914 -0.092,0.22801 -0.16728,0.0414 -0.16728,-0.41457 z m -28.88014,-0.19347 c 0.0159,-0.38635 0.0945,-0.46494 0.20037,-0.20037 0.0958,0.23941 0.084,0.52546 -0.0262,0.63567 -0.11021,0.11021 -0.18859,-0.0857 -0.17419,-0.4353 z m 5.001,-0.13819 c 0,-0.45602 0.0753,-0.64258 0.16728,-0.41456 0.092,0.22801 0.092,0.60112 0,0.82913 -0.092,0.22802 -0.16728,0.0415 -0.16728,-0.41457 z m 113.17619,-0.0829 -0.63179,-0.74622 0.74622,0.6318 c 0.70126,0.59373 0.8972,0.86064 0.6318,0.86064 -0.0629,0 -0.39874,-0.3358 -0.74623,-0.74622 z m 42.98079,-0.0829 c 0.42842,-0.45603 0.85356,-0.82914 0.94477,-0.82914 0.0912,0 -0.1847,0.37311 -0.61311,0.82914 -0.42841,0.45602 -0.85356,0.82913 -0.94476,0.82913 -0.0912,0 0.18469,-0.37311 0.6131,-0.82913 z m -90.18388,-0.0276 c 0.0159,-0.38636 0.0945,-0.46495 0.20037,-0.20038 0.0958,0.23942 0.084,0.52547 -0.0262,0.63568 -0.11021,0.1102 -0.18859,-0.0857 -0.17419,-0.4353 z m -104.13957,-0.66331 c 0.0159,-0.38636 0.0945,-0.46495 0.20038,-0.20037 0.0958,0.23941 0.084,0.52546 -0.0262,0.63567 -0.1102,0.1102 -0.18859,-0.0857 -0.17419,-0.4353 z m 76.94388,-0.33165 c 0.0159,-0.38636 0.0945,-0.46495 0.20038,-0.20038 0.0958,0.23941 0.084,0.52547 -0.0262,0.63567 -0.11021,0.11021 -0.1886,-0.0857 -0.1742,-0.43529 z m 33.11419,-0.38693 -0.80404,-0.91206 0.91205,0.80404 c 0.50163,0.44222 0.91205,0.85264 0.91205,0.91205 0,0.26011 -0.26857,0.0484 -1.02006,-0.80403 z m -71.53537,-1.07788 c 0,-0.63844 0.0683,-0.89962 0.15168,-0.5804 0.0834,0.31922 0.0834,0.84158 0,1.16079 -0.0834,0.31922 -0.15168,0.058 -0.15168,-0.58039 z m 65.28521,0.46984 c 0.0159,-0.38636 0.0945,-0.46494 0.20038,-0.20037 0.0958,0.23941 0.084,0.52546 -0.0262,0.63567 -0.1102,0.1102 -0.18859,-0.0857 -0.17419,-0.4353 z m -128.0187,-0.33165 c 0.0159,-0.38636 0.0945,-0.46495 0.20038,-0.20038 0.0958,0.23942 0.084,0.52547 -0.0262,0.63567 -0.1102,0.11021 -0.18859,-0.0857 -0.17419,-0.43529 z m 29.84892,0 c 0.0159,-0.38636 0.0945,-0.46495 0.20038,-0.20038 0.0958,0.23942 0.084,0.52547 -0.0262,0.63567 -0.1102,0.11021 -0.18859,-0.0857 -0.17419,-0.43529 z m 27.19568,0 c 0.0159,-0.38636 0.0945,-0.46495 0.20038,-0.20038 0.0958,0.23942 0.084,0.52547 -0.0262,0.63567 -0.11021,0.11021 -0.1886,-0.0857 -0.1742,-0.43529 z m 115.04014,-0.71859 -1.14294,-1.2437 1.2437,1.14293 c 1.15762,1.06383 1.3962,1.34448 1.14294,1.34448 -0.0554,0 -0.61509,-0.55967 -1.2437,-1.24371 z m -148.2056,-0.27638 c 0.0159,-0.38636 0.0945,-0.46494 0.20037,-0.20037 0.0958,0.23941 0.084,0.52546 -0.0262,0.63567 -0.11021,0.11021 -0.18859,-0.0857 -0.17419,-0.4353 z m 32.83381,-0.66331 c 0.0159,-0.38636 0.0945,-0.46494 0.20037,-0.20037 0.0958,0.23941 0.084,0.52546 -0.0262,0.63567 -0.11021,0.11021 -0.18859,-0.0857 -0.17419,-0.4353 z m 70.9741,0 c 0.0159,-0.38636 0.0945,-0.46494 0.20037,-0.20037 0.0958,0.23941 0.084,0.52546 -0.0262,0.63567 -0.11021,0.11021 -0.18859,-0.0857 -0.17419,-0.4353 z m 2.94085,-0.71858 -1.14293,-1.24371 1.2437,1.14294 c 0.68404,0.62862 1.24371,1.18828 1.24371,1.24371 0,0.25325 -0.28066,0.0147 -1.34448,-1.14294 z M 216.32617,401.4822 c 0.0159,-0.38636 0.0945,-0.46495 0.20038,-0.20037 0.0958,0.23941 0.084,0.52546 -0.0262,0.63567 -0.1102,0.1102 -0.18859,-0.0857 -0.17419,-0.4353 z m 63.34604,0 c 0.0159,-0.38636 0.0945,-0.46495 0.20038,-0.20037 0.0958,0.23941 0.084,0.52546 -0.0262,0.63567 -0.11021,0.1102 -0.1886,-0.0857 -0.1742,-0.4353 z m -23.87913,-0.33165 c 0.0159,-0.38636 0.0945,-0.46495 0.20037,-0.20038 0.0958,0.23941 0.084,0.52547 -0.0262,0.63567 -0.11021,0.11021 -0.18859,-0.0857 -0.17419,-0.43529 z m -32.83381,-0.33166 c 0.0159,-0.38636 0.0945,-0.46495 0.20037,-0.20037 0.0958,0.23941 0.084,0.52546 -0.0262,0.63567 -0.11021,0.1102 -0.1886,-0.0857 -0.17419,-0.4353 z m 138.41877,-0.55276 -0.9741,-1.07787 1.07788,0.9741 c 1.00473,0.90799 1.23032,1.18165 0.9741,1.18165 -0.0571,0 -0.54212,-0.48504 -1.07788,-1.07788 z m -112.21806,-0.4422 c 0.0159,-0.38636 0.0945,-0.46495 0.20038,-0.20038 0.0958,0.23941 0.084,0.52547 -0.0262,0.63567 -0.11021,0.11021 -0.1886,-0.0857 -0.1742,-0.43529 z m 30.84389,-0.66331 c 0.0159,-0.38636 0.0945,-0.46495 0.20037,-0.20038 0.0958,0.23942 0.084,0.52547 -0.0262,0.63567 -0.11021,0.11021 -0.18859,-0.0857 -0.17419,-0.43529 z m -56.67448,-0.63567 c 0.007,-0.54723 0.0811,-0.73095 0.16518,-0.40826 0.0841,0.32269 0.0786,0.77042 -0.0123,0.99496 -0.0908,0.22454 -0.15965,-0.0395 -0.15289,-0.5867 z m 32.79534,-0.69095 c 0.0159,-0.38636 0.0945,-0.46495 0.20038,-0.20038 0.0958,0.23942 0.084,0.52547 -0.0262,0.63568 -0.1102,0.1102 -0.18859,-0.0857 -0.17419,-0.4353 z m -40.46187,-0.33166 c 0.0159,-0.38635 0.0945,-0.46494 0.20038,-0.20037 0.0958,0.23941 0.084,0.52546 -0.0262,0.63567 -0.1102,0.11021 -0.18859,-0.0857 -0.17419,-0.4353 z m 141.72468,-0.88441 -0.6318,-0.74622 0.74622,0.6318 c 0.70127,0.59373 0.89721,0.86064 0.6318,0.86064 -0.0629,0 -0.39873,-0.3358 -0.74622,-0.74622 z m -165.93547,-0.11055 c 0.0159,-0.38636 0.0945,-0.46495 0.20038,-0.20037 0.0958,0.23941 0.084,0.52546 -0.0262,0.63567 -0.1102,0.1102 -0.18859,-0.0857 -0.17419,-0.4353 z m 57.0446,-0.66331 c 0.0159,-0.38636 0.0945,-0.46495 0.20038,-0.20037 0.0958,0.23941 0.084,0.52546 -0.0262,0.63567 -0.11021,0.1102 -0.1886,-0.0857 -0.1742,-0.4353 z m 7.99819,-0.63567 c 0.007,-0.54723 0.0811,-0.73095 0.16518,-0.40826 0.0841,0.32269 0.0786,0.77043 -0.0123,0.99497 -0.0908,0.22454 -0.15965,-0.0395 -0.15289,-0.58671 z m -32.87229,-0.0276 c 0.0159,-0.38636 0.0945,-0.46494 0.20038,-0.20037 0.0958,0.23941 0.084,0.52546 -0.0262,0.63567 -0.11021,0.1102 -0.1886,-0.0857 -0.1742,-0.4353 z m 68.65252,0 c 0.0159,-0.38636 0.0945,-0.46494 0.20038,-0.20037 0.0958,0.23941 0.084,0.52546 -0.0262,0.63567 -0.1102,0.1102 -0.18859,-0.0857 -0.17419,-0.4353 z m -76.94388,-0.33165 c 0.0159,-0.38636 0.0945,-0.46495 0.20037,-0.20038 0.0958,0.23942 0.084,0.52547 -0.0262,0.63567 -0.11021,0.11021 -0.18859,-0.0857 -0.17419,-0.43529 z m 32.83381,-0.66331 c 0.0159,-0.38636 0.0945,-0.46495 0.20037,-0.20038 0.0958,0.23942 0.084,0.52547 -0.0262,0.63567 -0.1102,0.11021 -0.18859,-0.0857 -0.17419,-0.43529 z m 32.50216,-0.66331 c 0.0159,-0.38636 0.0945,-0.46495 0.20037,-0.20038 0.0958,0.23942 0.084,0.52547 -0.0262,0.63567 -0.11021,0.11021 -0.18859,-0.0857 -0.17419,-0.43529 z m 72.91274,-0.38693 -0.80403,-0.91205 0.91205,0.80403 c 0.50162,0.44222 0.91205,0.85264 0.91205,0.91205 0,0.26011 -0.26858,0.0484 -1.02007,-0.80403 z m -138.58037,0.0553 c 0.0159,-0.38636 0.0945,-0.46494 0.20038,-0.20037 0.0958,0.23941 0.084,0.52546 -0.0262,0.63567 -0.1102,0.11021 -0.18859,-0.0857 -0.17419,-0.4353 z m 76.94389,0 c 0.0159,-0.38636 0.0945,-0.46494 0.20037,-0.20037 0.0958,0.23941 0.084,0.52546 -0.0262,0.63567 -0.11021,0.11021 -0.18859,-0.0857 -0.17419,-0.4353 z m -101.10392,-1.4648 c 0,-0.63844 0.0683,-0.89962 0.15168,-0.5804 0.0834,0.31922 0.0834,0.84157 0,1.16079 -0.0834,0.31922 -0.15168,0.058 -0.15168,-0.58039 z m 33.14089,0.33165 c 0,-0.45602 0.0753,-0.64258 0.16728,-0.41457 0.092,0.22801 0.092,0.60113 0,0.82914 -0.092,0.22801 -0.16728,0.0415 -0.16728,-0.41457 z m 32.80763,0.13819 c 0.0159,-0.38636 0.0945,-0.46495 0.20038,-0.20038 0.0958,0.23942 0.084,0.52547 -0.0262,0.63568 -0.1102,0.1102 -0.18859,-0.0857 -0.17419,-0.4353 z m 24.27947,-1.63064 c 0.002,-0.91205 0.0669,-1.24579 0.14313,-0.74166 0.0762,0.50414 0.0742,1.25036 -0.005,1.65827 -0.0787,0.40792 -0.14109,-0.005 -0.1386,-0.91661 z m 10.54427,0.63568 c 0.0159,-0.38636 0.0945,-0.46495 0.20038,-0.20038 0.0958,0.23941 0.084,0.52547 -0.0262,0.63567 -0.1102,0.11021 -0.18859,-0.0857 -0.17419,-0.43529 z m 58.98325,-0.71859 -0.80404,-0.91205 0.91205,0.80404 c 0.85245,0.75149 1.06415,1.02006 0.80404,1.02006 -0.0594,0 -0.46983,-0.41042 -0.91205,-0.91205 z m -59.3149,-1.27134 c 0.0159,-0.38636 0.0945,-0.46495 0.20037,-0.20038 0.0958,0.23942 0.084,0.52547 -0.0262,0.63567 -0.11021,0.11021 -0.18859,-0.0857 -0.17419,-0.43529 z m 55.33504,-2.37686 -0.80403,-0.91205 0.91205,0.80403 c 0.50163,0.44222 0.91205,0.85265 0.91205,0.91205 0,0.26011 -0.26858,0.0484 -1.02007,-0.80403 z m -134.16072,-0.49748 -0.6318,-0.74623 0.74622,0.6318 c 0.70127,0.59374 0.89721,0.86065 0.6318,0.86065 -0.0629,0 -0.39873,-0.3358 -0.74622,-0.74622 z m -14.96955,-1.8052 c 0.32269,-0.0841 0.77042,-0.0786 0.99496,0.0123 0.22454,0.0908 -0.0395,0.15965 -0.58671,0.15289 -0.54723,-0.007 -0.73094,-0.0811 -0.40825,-0.16518 z m 145.15042,-1.34552 -0.80404,-0.91205 0.91205,0.80403 c 0.50163,0.44222 0.91205,0.85265 0.91205,0.91205 0,0.26011 -0.26857,0.0484 -1.02006,-0.80403 z m -106.01148,0.33621 c 0.87196,-0.0685 2.21516,-0.0677 2.9849,0.002 0.76974,0.0696 0.0563,0.12564 -1.58537,0.12463 -1.64169,-10e-4 -2.27148,-0.0579 -1.39953,-0.12646 z m 29.67309,-0.65904 c 0.59283,-0.0736 1.56292,-0.0736 2.15576,0 0.59283,0.0736 0.10778,0.13376 -1.07788,0.13376 -1.18567,0 -1.67071,-0.0602 -1.07788,-0.13376 z m 73.35349,-2.33041 -0.80403,-0.91205 0.91205,0.80404 c 0.50163,0.44222 0.91205,0.85264 0.91205,0.91205 0,0.2601 -0.26857,0.0484 -1.02007,-0.80404 z m -49.95536,-2.73615 c 0,-1.00325 0.0622,-1.41368 0.13816,-0.91205 0.076,0.50163 0.076,1.32247 0,1.8241 -0.076,0.50163 -0.13816,0.0912 -0.13816,-0.91205 z m 45.97551,-0.91205 -0.80404,-0.91205 0.91205,0.80403 c 0.50163,0.44222 0.91205,0.85265 0.91205,0.91206 0,0.2601 -0.26857,0.0484 -1.02006,-0.80404 z m -3.97986,-3.6482 -0.80403,-0.91205 0.91205,0.80403 c 0.50163,0.44222 0.91205,0.85265 0.91205,0.91205 0,0.26011 -0.26858,0.0484 -1.02007,-0.80403 z m 68.96697,-1.98993 c -0.41253,-0.52602 -0.4008,-0.53775 0.12522,-0.12522 0.31922,0.25035 0.58039,0.51153 0.58039,0.5804 0,0.27296 -0.27235,0.0973 -0.70561,-0.45518 z m -71.95186,-0.66331 -0.80403,-0.91205 0.91205,0.80404 c 0.50162,0.44222 0.91205,0.85264 0.91205,0.91205 0,0.26011 -0.26858,0.0484 -1.02007,-0.80404 z m -3.97986,-3.6482 -0.80403,-0.91205 0.91205,0.80404 c 0.50163,0.44221 0.91205,0.85264 0.91205,0.91205 0,0.2601 -0.26857,0.0484 -1.02007,-0.80404 z m -3.48878,-3.15072 -0.6318,-0.74622 0.74623,0.6318 c 0.70126,0.59373 0.8972,0.86064 0.63179,0.86064 -0.0629,0 -0.39873,-0.3358 -0.74622,-0.74622 z m -13.11502,-1.55567 c 0.43063,-0.37565 0.94055,-0.683 1.13315,-0.683 0.40785,0 0.38836,0.0166 -0.92115,0.78337 l -0.99496,0.58262 z m 26.06546,-1.76087 -1.31101,-1.40954 1.40953,1.31102 c 1.31085,1.21923 1.56193,1.50805 1.31101,1.50805 -0.0542,0 -0.68847,-0.63429 -1.40953,-1.40953 z m -176.34177,0.85822 c 0.22802,-0.092 0.60113,-0.092 0.82914,0 0.22801,0.092 0.0415,0.16729 -0.41457,0.16729 -0.45602,0 -0.64258,-0.0753 -0.41457,-0.16729 z m 7.95972,-0.33165 c 0.22801,-0.092 0.60112,-0.092 0.82913,0 0.22801,0.092 0.0415,0.16728 -0.41457,0.16728 -0.45602,0 -0.64258,-0.0753 -0.41456,-0.16728 z m 3.82034,-0.34184 c 0.32269,-0.0841 0.77042,-0.0786 0.99496,0.0123 0.22454,0.0908 -0.0395,0.15965 -0.58671,0.15289 -0.54723,-0.007 -0.73094,-0.0811 -0.40825,-0.16518 z m 3.16513,-0.32838 c 0.23941,-0.0958 0.52547,-0.084 0.63567,0.0262 0.11021,0.11021 -0.0857,0.1886 -0.43529,0.1742 -0.38636,-0.0159 -0.46495,-0.0945 -0.20038,-0.20038 z m 2.32158,-0.33165 c 0.23942,-0.0958 0.52547,-0.084 0.63568,0.0262 0.1102,0.11021 -0.0857,0.18859 -0.4353,0.17419 -0.38636,-0.0159 -0.46495,-0.0945 -0.20038,-0.20037 z m 138.96331,0 c 0.23941,-0.0958 0.52547,-0.084 0.63567,0.0262 0.11021,0.11021 -0.0857,0.18859 -0.43529,0.17419 -0.38636,-0.0159 -0.46495,-0.0945 -0.20038,-0.20037 z m 114.404,-1.66629 c 0.41255,-0.0793 1.00953,-0.0763 1.32662,0.007 0.31709,0.083 -0.0205,0.14791 -0.75009,0.14423 -0.72964,-0.004 -0.98908,-0.0716 -0.57653,-0.15093 z m -8.12941,-0.33463 c 0.50163,-0.076 1.32248,-0.076 1.82411,0 0.50162,0.076 0.0912,0.13816 -0.91206,0.13816 -1.00325,0 -1.41367,-0.0622 -0.91205,-0.13816 z m -6.79505,-0.32867 c 0.41255,-0.0793 1.00953,-0.0763 1.32662,0.007 0.31709,0.083 -0.0204,0.14792 -0.75009,0.14423 -0.72964,-0.004 -0.98908,-0.0716 -0.57653,-0.15092 z m -36.81753,-2.96998 c 0.22801,-0.092 0.60112,-0.092 0.82913,0 0.22801,0.092 0.0415,0.16728 -0.41457,0.16728 -0.45602,0 -0.64258,-0.0753 -0.41456,-0.16728 z m -242.71341,-4.67226 -0.80404,-0.91205 0.91205,0.80404 c 0.85245,0.75149 1.06415,1.02006 0.80404,1.02006 -0.0594,0 -0.46983,-0.41042 -0.91205,-0.91205 z m 233.13603,-1.65827 c -0.41254,-0.52602 -0.40081,-0.53775 0.12522,-0.12522 0.55245,0.43327 0.72814,0.70562 0.45517,0.70562 -0.0689,0 -0.33004,-0.26118 -0.58039,-0.5804 z M 334.0374,347.6159 c 0.19524,-0.36482 0.42961,-0.66331 0.52082,-0.66331 0.0912,0 0.006,0.29849 -0.18917,0.66331 -0.19524,0.36482 -0.42961,0.66331 -0.52082,0.66331 -0.0912,0 -0.006,-0.29849 0.18917,-0.66331 z m 121.43797,-8.95468 c 0,-0.45602 0.0753,-0.64258 0.16728,-0.41457 0.092,0.22802 0.092,0.60113 0,0.82914 -0.092,0.22801 -0.16728,0.0415 -0.16728,-0.41457 z m -2.06739,-3.56528 -0.80404,-0.91206 0.91205,0.80404 c 0.50163,0.44222 0.91205,0.85264 0.91205,0.91205 0,0.26011 -0.26857,0.0484 -1.02006,-0.80403 z m -62.63145,-0.27638 c 0.0159,-0.38636 0.0945,-0.46495 0.20037,-0.20038 0.0958,0.23941 0.084,0.52547 -0.0262,0.63567 -0.11021,0.11021 -0.18859,-0.0857 -0.17419,-0.43529 z m 60.95597,-1.05024 c -0.41254,-0.52603 -0.4008,-0.53776 0.12522,-0.12522 0.31922,0.25035 0.58039,0.51152 0.58039,0.58039 0,0.27297 -0.27235,0.0973 -0.70561,-0.45517 z m -76.23827,-1.2031 c 0,-0.0689 0.26118,-0.33005 0.5804,-0.58039 0.52602,-0.41254 0.53775,-0.40081 0.12521,0.12521 -0.43326,0.55246 -0.70561,0.72814 -0.70561,0.45518 z m 68.90126,-1.1038 c 0.41042,-0.0791 1.08202,-0.0791 1.49244,0 0.41043,0.079 0.0746,0.14372 -0.74622,0.14372 -0.82084,0 -1.15664,-0.0647 -0.74622,-0.14372 z m -7.79389,-0.33515 c 0.50163,-0.076 1.32248,-0.076 1.8241,0 0.50163,0.076 0.0912,0.13817 -0.91205,0.13817 -1.00325,0 -1.41367,-0.0622 -0.91205,-0.13817 z m -7.46223,-0.32816 c 0.41043,-0.079 1.08203,-0.079 1.49245,0 0.41042,0.079 0.0746,0.14372 -0.74622,0.14372 -0.82085,0 -1.15665,-0.0647 -0.74623,-0.14372 z m -7.62419,-0.33217 c 0.41255,-0.0793 1.00953,-0.0763 1.32662,0.007 0.31709,0.083 -0.0204,0.14791 -0.75009,0.14423 -0.72964,-0.004 -0.98908,-0.0716 -0.57653,-0.15093 z m -43.36771,-1.21727 c 0,-0.0689 0.26118,-0.33004 0.58039,-0.58039 0.52603,-0.41254 0.53776,-0.40081 0.12522,0.12522 -0.43326,0.55245 -0.70561,0.72814 -0.70561,0.45517 z M 121.14128,319.8951 c 0.0159,-0.38636 0.0945,-0.46495 0.20038,-0.20038 0.0958,0.23942 0.084,0.52547 -0.0262,0.63567 -0.1102,0.11021 -0.18859,-0.0857 -0.17419,-0.43529 z m 232.13209,-0.59506 c 0,-0.0689 0.26118,-0.33005 0.58039,-0.5804 0.52603,-0.41254 0.53776,-0.40081 0.12522,0.12522 -0.43326,0.55245 -0.70561,0.72814 -0.70561,0.45518 z m -232.3996,-2.85968 c 0,-0.82084 0.0647,-1.15664 0.14373,-0.74622 0.079,0.41042 0.079,1.08202 0,1.49244 -0.079,0.41043 -0.14373,0.0746 -0.14373,-0.74622 z m 168.7219,-2.77845 c 0,-0.0689 0.26118,-0.33005 0.5804,-0.5804 0.52602,-0.41253 0.53775,-0.4008 0.12521,0.12522 -0.43326,0.55245 -0.70561,0.72814 -0.70561,0.45518 z M 120.80963,312.5987 c 0.0159,-0.38636 0.0945,-0.46495 0.20037,-0.20038 0.0958,0.23941 0.084,0.52547 -0.0262,0.63567 -0.11021,0.11021 -0.18859,-0.0857 -0.17419,-0.43529 z m 239.09683,-1.96229 c 0.42841,-0.45603 0.85356,-0.82914 0.94476,-0.82914 0.0912,0 -0.18469,0.37311 -0.6131,0.82914 -0.42842,0.45602 -0.85356,0.82913 -0.94477,0.82913 -0.0912,0 0.1847,-0.37311 0.61311,-0.82913 z m -65.66762,-0.6227 c 0,-0.0689 0.26117,-0.33005 0.58039,-0.5804 0.52602,-0.41254 0.53776,-0.40081 0.12522,0.12522 -0.43326,0.55245 -0.70561,0.72814 -0.70561,0.45518 z m 1.65827,-1.32662 c 0,-0.0689 0.26118,-0.33005 0.5804,-0.5804 0.52602,-0.41253 0.53775,-0.4008 0.12521,0.12522 -0.43326,0.55245 -0.70561,0.72814 -0.70561,0.45518 z m 65.66762,0 c 0,-0.0689 0.26118,-0.33005 0.5804,-0.5804 0.52602,-0.41253 0.53775,-0.4008 0.12522,0.12522 -0.43327,0.55245 -0.70562,0.72814 -0.70562,0.45518 z m 50.07986,-1.36723 c -0.8056,-0.82085 -1.3901,-1.49245 -1.2989,-1.49245 0.0912,0 0.82496,0.6716 1.63055,1.49245 0.8056,0.82084 1.39011,1.49244 1.2989,1.49244 -0.0912,0 -0.82495,-0.6716 -1.63055,-1.49244 z m -288.87122,1.05701 c 0,-0.0571 0.48505,-0.54212 1.07788,-1.07788 l 1.07788,-0.9741 -0.9741,1.07788 c -0.908,1.00474 -1.18166,1.23033 -1.18166,0.9741 z m 175.11367,-1.34806 c 0,-0.0689 0.26118,-0.33004 0.58039,-0.58039 0.52603,-0.41254 0.53776,-0.40081 0.12522,0.12522 -0.43326,0.55245 -0.70561,0.72814 -0.70561,0.45517 z m 2.48741,-2.19636 c 0.33016,-0.36482 0.67491,-0.66331 0.76611,-0.66331 0.0912,0 -0.1043,0.29849 -0.43446,0.66331 -0.33016,0.36482 -0.67491,0.66331 -0.76611,0.66331 -0.0912,0 0.1043,-0.29849 0.43446,-0.66331 z m 65.17014,-0.10378 c 0,-0.0571 0.48505,-0.54212 1.07788,-1.07788 l 1.07788,-0.9741 -0.9741,1.07788 c -0.908,1.00473 -1.18166,1.23032 -1.18166,0.9741 z m 41.74618,-1.13993 c -0.41253,-0.52602 -0.4008,-0.53775 0.12522,-0.12521 0.31922,0.25034 0.5804,0.51152 0.5804,0.58039 0,0.27296 -0.27235,0.0973 -0.70562,-0.45518 z m -104.59474,-0.74622 c 0.33016,-0.36482 0.67491,-0.66331 0.76611,-0.66331 0.0912,0 -0.1043,0.29849 -0.43446,0.66331 -0.33015,0.36482 -0.6749,0.66331 -0.76611,0.66331 -0.0912,0 0.1043,-0.29849 0.43446,-0.66331 z m 103.26813,-0.24874 c -0.41254,-0.52602 -0.40081,-0.53775 0.12521,-0.12522 0.31922,0.25035 0.5804,0.51153 0.5804,0.5804 0,0.27296 -0.27235,0.0973 -0.70561,-0.45518 z m 63.44071,-0.0829 c 0,-0.45603 0.0753,-0.64258 0.16728,-0.41457 0.092,0.22801 0.092,0.60112 0,0.82913 -0.092,0.22802 -0.16728,0.0415 -0.16728,-0.41456 z m -163.72395,-2.32159 c 0.33016,-0.36482 0.67491,-0.66331 0.76612,-0.66331 0.0912,0 -0.10431,0.29849 -0.43446,0.66331 -0.33016,0.36482 -0.67491,0.66331 -0.76612,0.66331 -0.0912,0 0.1043,-0.29849 0.43446,-0.66331 z m 164.0556,-0.33165 c 0,-0.45603 0.0753,-0.64258 0.16729,-0.41457 0.092,0.22801 0.092,0.60112 0,0.82914 -0.092,0.22801 -0.16729,0.0414 -0.16729,-0.41457 z m 0.30547,-2.8467 c 0.0159,-0.38636 0.0945,-0.46495 0.20038,-0.20038 0.0958,0.23942 0.084,0.52547 -0.0262,0.63567 -0.11021,0.11021 -0.1886,-0.0857 -0.1742,-0.43529 z m -84.51065,-1.7028 c 0.50414,-0.0762 1.25036,-0.0742 1.65828,0.005 0.40791,0.0787 -0.005,0.14109 -0.91661,0.1386 -0.91205,-0.002 -1.2458,-0.0669 -0.74167,-0.14313 z m 84.84231,-0.95044 c 0.0159,-0.38636 0.0945,-0.46495 0.20037,-0.20038 0.0958,0.23942 0.084,0.52547 -0.0262,0.63568 -0.11021,0.1102 -0.18859,-0.0857 -0.17419,-0.4353 z m -153.5823,-5.27884 c 0.42842,-0.45602 0.85356,-0.82913 0.94476,-0.82913 0.0912,0 -0.18469,0.37311 -0.6131,0.82913 -0.42841,0.45603 -0.85356,0.82914 -0.94476,0.82914 -0.0912,0 0.18469,-0.37311 0.6131,-0.82914 z m 151.71115,-1.2437 -0.9741,-1.07788 1.07788,0.9741 c 1.00473,0.908 1.23032,1.18166 0.9741,1.18166 -0.0571,0 -0.54212,-0.48505 -1.07788,-1.07788 z m -144.58057,-6.88184 c 0.33016,-0.36482 0.67491,-0.6633 0.76611,-0.6633 0.0912,0 -0.1043,0.29848 -0.43446,0.6633 -0.33015,0.36482 -0.67491,0.66331 -0.76611,0.66331 -0.0912,0 0.1043,-0.29849 0.43446,-0.66331 z m 132.23072,-0.0663 c -0.2189,-0.21889 -0.37767,-0.77856 -0.35282,-1.2437 l 0.0452,-0.84572 0.15244,0.82914 c 0.0838,0.45602 0.30566,1.01569 0.49293,1.2437 0.43443,0.52896 0.18682,0.54112 -0.33771,0.0166 z m -0.0401,-4.10699 c 0.0159,-0.38636 0.0945,-0.46494 0.20037,-0.20037 0.0958,0.23941 0.084,0.52546 -0.0262,0.63567 -0.11021,0.11021 -0.18859,-0.0857 -0.17419,-0.4353 z m 0.33165,-2.65323 c 0.0159,-0.38636 0.0945,-0.46495 0.20038,-0.20038 0.0958,0.23941 0.084,0.52547 -0.0262,0.63567 -0.1102,0.11021 -0.18859,-0.0857 -0.17419,-0.43529 z m -78.65344,-3.04017 -0.80403,-0.91205 0.91205,0.80403 c 0.50162,0.44222 0.91205,0.85265 0.91205,0.91205 0,0.26011 -0.26858,0.0484 -1.02007,-0.80403 z m 78.9851,0.38693 c 0.0159,-0.38636 0.0945,-0.46495 0.20037,-0.20038 0.0958,0.23942 0.084,0.52547 -0.0262,0.63568 -0.11021,0.1102 -0.18859,-0.0857 -0.17419,-0.4353 z m 0.35784,-2.79143 c 0,-0.45602 0.0753,-0.64258 0.16728,-0.41457 0.092,0.22802 0.092,0.60113 0,0.82914 -0.092,0.22801 -0.16728,0.0415 -0.16728,-0.41457 z m -25.86907,-1.65827 c 0,-0.45603 0.0753,-0.64258 0.16728,-0.41457 0.092,0.22801 0.092,0.60113 0,0.82914 -0.092,0.22801 -0.16728,0.0414 -0.16728,-0.41457 z m 26.20072,-0.99496 c 0,-0.45603 0.0753,-0.64259 0.16728,-0.41457 0.092,0.22801 0.092,0.60112 0,0.82913 -0.092,0.22802 -0.16728,0.0415 -0.16728,-0.41456 z m -81.54908,-1.98993 c 0,-0.82085 0.0647,-1.15665 0.14372,-0.74623 0.0791,0.41043 0.0791,1.08203 0,1.49245 -0.079,0.41042 -0.14372,0.0746 -0.14372,-0.74622 z m 55.65383,0.13819 c 0.0159,-0.38636 0.0945,-0.46495 0.20038,-0.20038 0.0958,0.23942 0.084,0.52547 -0.0262,0.63567 -0.1102,0.11021 -0.18859,-0.0857 -0.17419,-0.43529 z m 26.22691,-0.8015 c 0,-0.45603 0.0753,-0.64258 0.16728,-0.41457 0.092,0.22801 0.092,0.60112 0,0.82914 -0.092,0.22801 -0.16728,0.0414 -0.16728,-0.41457 z M 245.4856,261.92378 c 0,-0.0689 0.26118,-0.33005 0.5804,-0.58039 0.52602,-0.41254 0.53775,-0.40081 0.12521,0.12521 -0.43326,0.55246 -0.70561,0.72814 -0.70561,0.45518 z m 186.41611,-0.3999 c 0.0159,-0.38636 0.0945,-0.46495 0.20037,-0.20037 0.0958,0.23941 0.084,0.52546 -0.0262,0.63567 -0.11021,0.1102 -0.18859,-0.0857 -0.17419,-0.4353 z m 26.2269,-0.8015 c 0,-0.45602 0.0753,-0.64258 0.16728,-0.41457 0.092,0.22802 0.092,0.60113 0,0.82914 -0.092,0.22801 -0.16728,0.0415 -0.16728,-0.41457 z m -43.16747,-0.31208 c 0,-0.17165 0.14753,-0.40326 0.32785,-0.51471 0.188,-0.11619 0.2436,0.0169 0.13035,0.31208 -0.22049,0.57457 -0.4582,0.67969 -0.4582,0.20263 z m -167.15396,-0.47645 c 0,-0.0689 0.26118,-0.33004 0.5804,-0.58039 0.52602,-0.41254 0.53775,-0.40081 0.12522,0.12522 -0.43327,0.55245 -0.70562,0.72814 -0.70562,0.45517 z m 128.73438,-0.53809 c 0,-0.45602 0.0753,-0.64258 0.16728,-0.41457 0.092,0.22802 0.092,0.60113 0,0.82914 -0.092,0.22801 -0.16728,0.0415 -0.16728,-0.41457 z m 55.6918,-0.52512 c 0.0159,-0.38636 0.0945,-0.46494 0.20038,-0.20037 0.0958,0.23941 0.084,0.52546 -0.0262,0.63567 -0.1102,0.11021 -0.18859,-0.0857 -0.17419,-0.4353 z m 26.2269,-0.8015 c 0,-0.45602 0.0753,-0.64258 0.16729,-0.41456 0.092,0.22801 0.092,0.60112 0,0.82913 -0.092,0.22801 -0.16729,0.0415 -0.16729,-0.41457 z m -81.58704,-1.32661 c 0,-0.45603 0.0753,-0.64259 0.16728,-0.41457 0.092,0.22801 0.092,0.60112 0,0.82913 -0.092,0.22802 -0.16728,0.0415 -0.16728,-0.41456 z m -124.75453,-0.68408 c 0,-0.0912 0.89547,-1.05195 1.98993,-2.13499 1.09446,-1.08304 1.98993,-1.89454 1.98993,-1.80334 0,0.0912 -0.89547,1.05196 -1.98993,2.135 -1.09446,1.08304 -1.98993,1.89454 -1.98993,1.80333 z m 206.67323,-0.64254 c 0,-0.45603 0.0753,-0.64258 0.16728,-0.41457 0.092,0.22801 0.092,0.60112 0,0.82914 -0.092,0.22801 -0.16728,0.0414 -0.16728,-0.41457 z m -81.58705,-1.32662 c 0,-0.45603 0.0753,-0.64258 0.16728,-0.41457 0.092,0.22801 0.092,0.60112 0,0.82914 -0.092,0.22801 -0.16728,0.0414 -0.16728,-0.41457 z m 81.9187,-1.32662 c 0,-0.45603 0.0753,-0.64258 0.16729,-0.41457 0.092,0.22801 0.092,0.60113 0,0.82914 -0.092,0.22801 -0.16729,0.0414 -0.16729,-0.41457 z m -81.58705,-1.32662 c 0,-0.45602 0.0753,-0.64258 0.16729,-0.41457 0.092,0.22802 0.092,0.60113 0,0.82914 -0.092,0.22801 -0.16729,0.0415 -0.16729,-0.41457 z m -118.95056,-2.32158 c 0.33016,-0.36482 0.67491,-0.66331 0.76611,-0.66331 0.0912,0 -0.1043,0.29849 -0.43446,0.66331 -0.33015,0.36482 -0.67491,0.66331 -0.76611,0.66331 -0.0912,0 0.1043,-0.29849 0.43446,-0.66331 z m 207.71946,-0.22656 c 0.23942,-0.0958 0.52547,-0.084 0.63568,0.0262 0.1102,0.11021 -0.0857,0.1886 -0.4353,0.1742 -0.38636,-0.0159 -0.46495,-0.0945 -0.20038,-0.20038 z M 377.842,247.59438 c 0.0159,-0.38635 0.0945,-0.46494 0.20037,-0.20037 0.0958,0.23941 0.084,0.52547 -0.0262,0.63567 -0.11021,0.11021 -0.18859,-0.0857 -0.17419,-0.4353 z m -117.76359,-0.2634 c 0,-0.0689 0.26117,-0.33005 0.58039,-0.5804 0.52602,-0.41253 0.53775,-0.4008 0.12522,0.12522 -0.43326,0.55245 -0.70561,0.72814 -0.70561,0.45518 z m 1.65827,-1.98993 c 0,-0.0689 0.26118,-0.33005 0.58039,-0.5804 0.52603,-0.41253 0.53776,-0.4008 0.12522,0.12522 -0.43326,0.55245 -0.70561,0.72814 -0.70561,0.45518 z m 118.23489,-3.52298 c 0.33016,-0.36482 0.67491,-0.66331 0.76611,-0.66331 0.0912,0 -0.1043,0.29849 -0.43446,0.66331 -0.33015,0.36482 -0.67491,0.66331 -0.76611,0.66331 -0.0912,0 0.1043,-0.29849 0.43446,-0.66331 z m 97.03517,-0.85678 c 0.0159,-0.38636 0.0945,-0.46494 0.20038,-0.20037 0.0958,0.23941 0.084,0.52546 -0.0262,0.63567 -0.1102,0.1102 -0.18859,-0.0857 -0.17419,-0.4353 z m 0.33166,-2.65324 c 0.0159,-0.38635 0.0945,-0.46494 0.20037,-0.20037 0.0958,0.23941 0.084,0.52547 -0.0262,0.63567 -0.11021,0.11021 -0.18859,-0.0857 -0.17419,-0.4353 z m 0.35784,-2.79142 c 0,-0.45603 0.0753,-0.64258 0.16728,-0.41457 0.092,0.22801 0.092,0.60112 0,0.82914 -0.092,0.22801 -0.16728,0.0414 -0.16728,-0.41457 z M 404.286,234.95842 c 0.23941,-0.0958 0.52547,-0.084 0.63567,0.0262 0.11021,0.1102 -0.0857,0.18859 -0.43529,0.17419 -0.38636,-0.0159 -0.46495,-0.0945 -0.20038,-0.20037 z m 73.74189,-2.09503 c 0,-0.45602 0.0753,-0.64258 0.16728,-0.41457 0.092,0.22802 0.092,0.60113 0,0.82914 -0.092,0.22801 -0.16728,0.0415 -0.16728,-0.41457 z m 0.34394,-2.81906 c 0.007,-0.54723 0.0811,-0.73095 0.16518,-0.40826 0.0841,0.32269 0.0786,0.77042 -0.0123,0.99496 -0.0908,0.22455 -0.15965,-0.0395 -0.15289,-0.5867 z m -0.0385,-2.34922 c 0.0159,-0.38636 0.0945,-0.46495 0.20038,-0.20038 0.0958,0.23941 0.084,0.52547 -0.0262,0.63567 -0.1102,0.11021 -0.18859,-0.0857 -0.17419,-0.43529 z m -40.21858,-0.0331 c 0.23941,-0.0958 0.52546,-0.084 0.63567,0.0262 0.11021,0.1102 -0.0857,0.18859 -0.4353,0.17419 -0.38636,-0.0159 -0.46494,-0.0945 -0.20037,-0.20038 z m -335.30287,-2.32158 c 0.23941,-0.0958 0.52546,-0.084 0.63567,0.0262 0.1102,0.11021 -0.0857,0.1886 -0.4353,0.1742 -0.38636,-0.0159 -0.46495,-0.0945 -0.20037,-0.20038 z m 10.10105,-0.003 c 0.32269,-0.0841 0.77042,-0.0786 0.99496,0.0123 0.22454,0.0909 -0.0395,0.15965 -0.58671,0.15289 -0.54723,-0.007 -0.73094,-0.0811 -0.40825,-0.16517 z m 3.82844,-0.32838 c 0.23942,-0.0958 0.52547,-0.084 0.63567,0.0262 0.11021,0.11021 -0.0857,0.18859 -0.43529,0.17419 -0.38636,-0.0159 -0.46495,-0.0945 -0.20038,-0.20037 z m 2.65324,-0.33166 c 0.23941,-0.0958 0.52547,-0.084 0.63567,0.0262 0.11021,0.11021 -0.0857,0.1886 -0.4353,0.1742 -0.38635,-0.0159 -0.46494,-0.0945 -0.20037,-0.20038 z m 350.55899,-3.6482 c 0.23941,-0.0958 0.52546,-0.084 0.63567,0.0262 0.1102,0.11021 -0.0857,0.1886 -0.4353,0.1742 -0.38636,-0.0159 -0.46495,-0.0945 -0.20037,-0.20038 z m -269.15219,-3.98313 c 0.32269,-0.0841 0.77043,-0.0786 0.99497,0.0123 0.22454,0.0909 -0.0395,0.15965 -0.58671,0.15289 -0.54723,-0.007 -0.73094,-0.0811 -0.40826,-0.16518 z m 3.97355,10e-4 c 0.31922,-0.0834 0.84157,-0.0834 1.16079,0 0.31922,0.0834 0.058,0.15168 -0.5804,0.15168 -0.63843,0 -0.89961,-0.0683 -0.58039,-0.15168 z m 5.49303,-0.32959 c 0.23941,-0.0958 0.52546,-0.084 0.63567,0.0262 0.11021,0.11021 -0.0857,0.1886 -0.4353,0.17419 -0.38635,-0.0159 -0.46494,-0.0945 -0.20037,-0.20037 z m 5.63813,-0.66331 c 0.23941,-0.0958 0.52546,-0.084 0.63567,0.0262 0.11021,0.11021 -0.0857,0.1886 -0.4353,0.1742 -0.38636,-0.0159 -0.46494,-0.0945 -0.20037,-0.20038 z m -68.25868,-2.26085 c 0.42842,-0.45603 0.85356,-0.82914 0.94476,-0.82914 0.0912,0 -0.18469,0.37311 -0.6131,0.82914 -0.42842,0.45602 -0.85356,0.82914 -0.94476,0.82914 -0.0912,0 0.18469,-0.37312 0.6131,-0.82914 z m 94.85324,-6.59248 c 0,-0.0689 0.26118,-0.33005 0.58039,-0.5804 0.52603,-0.41254 0.53776,-0.4008 0.12522,0.12522 -0.43326,0.55245 -0.70561,0.72814 -0.70561,0.45518 z m -89.1036,-7.17119 c 0,-1.36807 0.0585,-1.92774 0.13009,-1.2437 0.0716,0.68403 0.0716,1.80337 0,2.48741 -0.0716,0.68403 -0.13009,0.12437 -0.13009,-1.24371 z m 97.08949,-4.17332 c 0.0159,-0.38636 0.0945,-0.46495 0.20038,-0.20037 0.0958,0.23941 0.084,0.52546 -0.0262,0.63567 -0.1102,0.1102 -0.18859,-0.0857 -0.17419,-0.4353 z m -97.468,-2.6256 c 0.007,-0.54723 0.0811,-0.73094 0.16518,-0.40826 0.0841,0.32269 0.0786,0.77043 -0.0123,0.99497 -0.0909,0.22454 -0.15965,-0.0395 -0.15289,-0.58671 z M 250.51276,190.08 c 0,-0.45602 0.0753,-0.64258 0.16728,-0.41457 0.092,0.22802 0.092,0.60113 0,0.82914 -0.092,0.22801 -0.16728,0.0415 -0.16728,-0.41457 z m -97.86431,-0.19346 c 0.0159,-0.38636 0.0945,-0.46495 0.20037,-0.20038 0.0958,0.23942 0.084,0.52547 -0.0262,0.63567 -0.11021,0.11021 -0.1886,-0.0857 -0.17419,-0.43529 z m 97.50647,-2.65324 c 0.0159,-0.38636 0.0945,-0.46495 0.20037,-0.20038 0.0958,0.23942 0.084,0.52547 -0.0262,0.63568 -0.11021,0.1102 -0.18859,-0.0857 -0.17419,-0.4353 z m 115.08417,-2.32158 c 0.0159,-0.38636 0.0945,-0.46495 0.20037,-0.20038 0.0958,0.23942 0.084,0.52547 -0.0262,0.63567 -0.11021,0.11021 -0.18859,-0.0857 -0.17419,-0.43529 z m 0.33165,-2.32159 c 0.0159,-0.38635 0.0945,-0.46494 0.20038,-0.20037 0.0958,0.23941 0.084,0.52547 -0.0262,0.63567 -0.1102,0.11021 -0.18859,-0.0857 -0.17419,-0.4353 z m 0.35784,-2.45977 c 0,-0.45602 0.0753,-0.64258 0.16728,-0.41457 0.092,0.22802 0.092,0.60113 0,0.82914 -0.092,0.22801 -0.16728,0.0415 -0.16728,-0.41457 z m 0.33166,-3.31654 c 0,-0.45603 0.0753,-0.64258 0.16728,-0.41457 0.092,0.22801 0.092,0.60112 0,0.82913 -0.092,0.22802 -0.16728,0.0415 -0.16728,-0.41456 z m -76.63842,-1.52009 c 0.0159,-0.38636 0.0945,-0.46494 0.20038,-0.20037 0.0958,0.23941 0.084,0.52546 -0.0262,0.63567 -0.11021,0.11021 -0.1886,-0.0857 -0.1742,-0.4353 z m 76.97007,-1.79646 c 0,-0.45603 0.0753,-0.64258 0.16728,-0.41457 0.092,0.22801 0.092,0.60113 0,0.82914 -0.092,0.22801 -0.16728,0.0414 -0.16728,-0.41457 z m -76.63841,-0.85677 c 0.0159,-0.38636 0.0945,-0.46495 0.20037,-0.20038 0.0958,0.23941 0.084,0.52547 -0.0262,0.63567 -0.11021,0.11021 -0.18859,-0.0857 -0.17419,-0.43529 z m 0.33165,-2.65324 c 0.0159,-0.38636 0.0945,-0.46495 0.20038,-0.20038 0.0958,0.23942 0.084,0.52547 -0.0262,0.63567 -0.1102,0.11021 -0.18859,-0.0857 -0.17419,-0.43529 z m 76.66299,-0.8015 c 0,-0.63844 0.0683,-0.89961 0.15168,-0.5804 0.0834,0.31922 0.0834,0.84158 0,1.16079 -0.0834,0.31922 -0.15168,0.058 -0.15168,-0.58039 z M 290.643,167.19577 c 0,-0.45602 0.0753,-0.64258 0.16728,-0.41457 0.092,0.22802 0.092,0.60113 0,0.82914 -0.092,0.22801 -0.16728,0.0415 -0.16728,-0.41457 z m 0.33166,-3.6482 c 0,-0.45602 0.0753,-0.64258 0.16728,-0.41457 0.092,0.22801 0.092,0.60113 0,0.82914 -0.092,0.22801 -0.16728,0.0415 -0.16728,-0.41457 z m 76.31853,-0.66331 c 0,-0.82084 0.0647,-1.15664 0.14373,-0.74622 0.079,0.41042 0.079,1.08202 0,1.49244 -0.079,0.41043 -0.14373,0.0746 -0.14373,-0.74622 z m -75.98688,-2.98489 c 0,-0.45603 0.0753,-0.64258 0.16728,-0.41457 0.092,0.22801 0.092,0.60112 0,0.82914 -0.092,0.22801 -0.16728,0.0414 -0.16728,-0.41457 z m 0.34394,-4.47734 c 0.007,-0.54723 0.0811,-0.73094 0.16518,-0.40825 0.0841,0.32268 0.0786,0.77042 -0.0123,0.99496 -0.0908,0.22454 -0.15964,-0.0395 -0.15289,-0.58671 z M 70.729772,153.73612 c 0.01591,-0.38636 0.0945,-0.46495 0.200374,-0.20037 0.09581,0.23941 0.08402,0.52546 -0.02618,0.63567 -0.110206,0.1102 -0.188592,-0.0857 -0.174191,-0.4353 z m 221.252138,-3.28891 c 0.007,-0.54723 0.0811,-0.73094 0.16518,-0.40825 0.0841,0.32268 0.0786,0.77042 -0.0123,0.99496 -0.0908,0.22454 -0.15965,-0.0395 -0.15289,-0.58671 z m -221.915448,-1.0226 c 0.01591,-0.38636 0.0945,-0.46495 0.200375,-0.20037 0.0958,0.23941 0.08402,0.52546 -0.02618,0.63567 -0.110206,0.1102 -0.188592,-0.0857 -0.174192,-0.4353 z m -0.331654,-2.32158 c 0.01591,-0.38636 0.0945,-0.46495 0.200374,-0.20038 0.09581,0.23942 0.08402,0.52547 -0.02618,0.63567 -0.110206,0.11021 -0.188592,-0.0857 -0.174191,-0.43529 z m -0.331655,-2.65324 c 0.01591,-0.38636 0.0945,-0.46495 0.200375,-0.20037 0.0958,0.23941 0.08402,0.52546 -0.02618,0.63567 -0.110206,0.1102 -0.188592,-0.0857 -0.174191,-0.4353 z m 222.948527,-2.29394 c 0.002,-1.09446 0.0638,-1.50221 0.13759,-0.90611 0.0738,0.59609 0.0723,1.49156 -0.003,1.98992 -0.0757,0.49836 -0.13606,0.0107 -0.1342,-1.08381 z m 74.93482,0 c 0.004,-0.72964 0.0716,-0.98908 0.15093,-0.57653 0.0793,0.41255 0.0763,1.00952 -0.007,1.32662 -0.083,0.31709 -0.14792,-0.0204 -0.14424,-0.75009 z M 69.097682,141.32671 c 0,-0.45603 0.07528,-0.64258 0.167282,-0.41457 0.09201,0.22801 0.09201,0.60112 0,0.82914 -0.09201,0.22801 -0.167282,0.0414 -0.167282,-0.41457 z m -0.277867,-5.30648 c 0,-1.18566 0.06019,-1.67071 0.133763,-1.07787 0.07357,0.59283 0.07357,1.56292 0,2.15575 -0.07357,0.59284 -0.133763,0.10779 -0.133763,-1.07788 z m 298.103765,0 c 0,-0.45602 0.0753,-0.64258 0.16728,-0.41456 0.092,0.22801 0.092,0.60112 0,0.82913 -0.092,0.22802 -0.16728,0.0415 -0.16728,-0.41457 z m -0.33166,-3.6482 c 0,-0.45602 0.0753,-0.64258 0.16728,-0.41456 0.092,0.22801 0.092,0.60112 0,0.82913 -0.092,0.22801 -0.16728,0.0415 -0.16728,-0.41457 z m -73.87432,-8.78884 c 3.4e-4,-3.28339 0.05,-4.58173 0.11029,-2.88521 0.0603,1.69652 0.06,4.38293 -6.3e-4,5.96979 -0.0607,1.58686 -0.11001,0.1988 -0.10966,-3.08458 z m -130.45114,3.62056 c 0.0159,-0.38636 0.0945,-0.46495 0.20038,-0.20038 0.0958,0.23942 0.084,0.52547 -0.0262,0.63568 -0.1102,0.1102 -0.18859,-0.0857 -0.17419,-0.4353 z m -0.33165,-2.32158 c 0.0159,-0.38636 0.0945,-0.46495 0.20037,-0.20038 0.0958,0.23941 0.084,0.52547 -0.0262,0.63567 -0.11021,0.11021 -0.18859,-0.0857 -0.17419,-0.43529 z m -87.58302,-2.6256 c 0.428413,-0.45603 0.853556,-0.82914 0.944761,-0.82914 0.09121,0 -0.184693,0.37311 -0.613106,0.82914 -0.428414,0.45602 -0.853556,0.82913 -0.944761,0.82913 -0.09121,0 0.184692,-0.37311 0.613106,-0.82913 z m 87.28983,-0.33166 c 0.007,-0.54723 0.0811,-0.73094 0.16518,-0.40825 0.0841,0.32269 0.0786,0.77042 -0.0123,0.99496 -0.0908,0.22454 -0.15965,-0.0395 -0.15289,-0.58671 z m -0.0123,-3.81403 c 0,-0.45602 0.0753,-0.64258 0.16729,-0.41456 0.092,0.22801 0.092,0.60112 0,0.82913 -0.092,0.22801 -0.16729,0.0415 -0.16729,-0.41457 z m 131.33525,-4.64316 c 0,-0.45603 0.0753,-0.64258 0.16729,-0.41457 0.092,0.22801 0.092,0.60112 0,0.82914 -0.092,0.22801 -0.16729,0.0414 -0.16729,-0.41457 z m 64.90965,-5.88687 c -0.41254,-0.52602 -0.40081,-0.53775 0.12522,-0.12522 0.31921,0.25035 0.58039,0.51153 0.58039,0.5804 0,0.27296 -0.27235,0.0973 -0.70561,-0.45518 z m -249.09254,-0.97278 c 0.23941,-0.0958 0.52547,-0.084 0.63567,0.0262 0.11021,0.11021 -0.0857,0.18859 -0.4353,0.17419 -0.38635,-0.0159 -0.46494,-0.0945 -0.20037,-0.20037 z m 3.46796,-0.33493 c 0.32269,-0.0841 0.77042,-0.0786 0.99496,0.0123 0.22454,0.0908 -0.0395,0.15964 -0.58671,0.15289 -0.54723,-0.007 -0.73094,-0.0811 -0.40825,-0.16518 z m 6.96475,0 c 0.32269,-0.0841 0.77042,-0.0786 0.99496,0.0123 0.22454,0.0908 -0.0395,0.15964 -0.58671,0.15289 -0.54723,-0.007 -0.73094,-0.0811 -0.40825,-0.16518 z m 103.05537,-5.57412 c -0.8056,-0.82085 -1.3901,-1.492451 -1.29889,-1.492451 0.0912,0 0.82495,0.671601 1.63055,1.492451 0.8056,0.82084 1.3901,1.49244 1.2989,1.49244 -0.0912,0 -0.82496,-0.6716 -1.63056,-1.49244 z m 75.61727,-0.994969 c 0.42841,-0.456025 0.85355,-0.829136 0.94476,-0.829136 0.0912,0 -0.18469,0.373111 -0.61311,0.829136 -0.42841,0.456029 -0.85355,0.829139 -0.94476,0.829139 -0.0912,0 0.18469,-0.37311 0.61311,-0.829139 z m 34.4299,-3.708931 c 0.23941,-0.09581 0.52546,-0.08402 0.63567,0.02618 0.11021,0.110206 -0.0857,0.188592 -0.4353,0.174191 -0.38636,-0.01591 -0.46494,-0.0945 -0.20037,-0.200374 z m -2.65324,-0.331655 c 0.23941,-0.0958 0.52547,-0.08402 0.63567,0.02618 0.11021,0.110206 -0.0857,0.188592 -0.43529,0.174192 -0.38636,-0.01591 -0.46495,-0.0945 -0.20038,-0.200375 z M 307.11118,95.33181 c 0.23942,-0.0958 0.52547,-0.08402 0.63567,0.02618 0.11021,0.110206 -0.0857,0.188592 -0.43529,0.174191 -0.38636,-0.01591 -0.46495,-0.0945 -0.20038,-0.200375 z m 18.05445,-0.0021 c 0.31922,-0.08342 0.84158,-0.08342 1.1608,0 0.31921,0.08342 0.058,0.151673 -0.5804,0.151673 -0.63844,0 -0.89961,-0.06825 -0.5804,-0.151673 z m -15.25611,-0.331654 c 0.31922,-0.08342 0.84157,-0.08342 1.16079,0 0.31922,0.08342 0.058,0.151673 -0.58039,0.151673 -0.63844,0 -0.89962,-0.06825 -0.5804,-0.151673 z m 7.79388,-0.01422 c 0.77525,-0.06982 2.04383,-0.06982 2.81907,0 0.77524,0.06982 0.14095,0.126955 -1.40953,0.126955 -1.55049,0 -2.18478,-0.05713 -1.40954,-0.126955 z M 196.64945,94.012101 c 0.22801,-0.09201 0.60112,-0.09201 0.82914,0 0.22801,0.09201 0.0414,0.167282 -0.41457,0.167282 -0.45603,0 -0.64258,-0.07528 -0.41457,-0.167282 z m 3.32041,-0.346572 c 0.41255,-0.07933 1.00953,-0.07632 1.32662,0.0067 0.31709,0.08301 -0.0205,0.147916 -0.75009,0.144235 -0.72964,-0.0037 -0.98908,-0.0716 -0.57653,-0.150928 z m 8.61916,0.01492 c 0.22801,-0.09201 0.60112,-0.09201 0.82913,0 0.22802,0.09201 0.0415,0.167282 -0.41456,0.167282 -0.45603,0 -0.64258,-0.07528 -0.41457,-0.167282 z" id="path2"/><path style="fill:#000000;fill-opacity:1" d="m 210.16438,480.89672 c -2.458,-0.91888 -3.95435,-2.75151 -4.79467,-5.87222 -0.34143,-1.26799 -1.09265,-5.3901 -2.00425,-10.99782 -0.32313,-1.98772 -1.31456,-7.71907 -2.15139,-12.43705 -0.2912,-1.64169 -0.90381,-5.14894 -1.36138,-7.79389 -0.45756,-2.64494 -1.1239,-6.48172 -1.48075,-8.52617 -0.35685,-2.04445 -1.02885,-5.92481 -1.49333,-8.62302 -0.46448,-2.69821 -0.99335,-5.72668 -1.17526,-6.72994 -0.18191,-1.00325 -0.46464,-2.64495 -0.62827,-3.6482 -0.16364,-1.00326 -0.59681,-3.54041 -0.9626,-5.63813 -3.3014,-18.93246 -3.33791,-19.23199 -2.64733,-21.7195 0.44421,-1.60008 2.04744,-3.18962 3.80522,-3.77275 1.81613,-0.60249 12.47979,-0.90172 14.31797,-0.40179 3.11804,0.84803 4.64183,3.2775 5.52814,8.81383 0.29201,1.8241 0.67195,4.13739 0.8443,5.14064 0.17235,1.00326 0.47424,2.86882 0.67086,4.14569 0.19663,1.27687 0.49373,3.14242 0.66023,4.14568 0.5878,3.54176 0.95966,5.86552 1.87128,11.69373 0.50669,3.23937 1.03234,5.69127 1.16811,5.44866 0.26098,-0.46634 0.67355,-3.49273 1.47789,-10.84095 0.26955,-2.46254 0.71105,-6.41752 0.9811,-8.78885 0.27005,-2.37133 0.6376,-5.72933 0.81679,-7.46223 0.54489,-5.26965 1.02884,-7.72126 1.84302,-9.33653 1.61634,-3.20664 3.65707,-3.92966 11.09157,-3.92966 5.2966,0 6.68377,0.23036 8.34337,1.38554 1.13305,0.78868 2.42497,3.51154 2.88322,6.07669 0.38676,2.16503 1.51703,9.22763 2.06998,12.93453 0.19047,1.27688 0.4741,2.99319 0.6303,3.81403 0.1562,0.82085 0.68224,4.10423 1.16898,7.29641 0.96303,6.31581 1.41383,8.46426 1.71321,8.16488 0.10639,-0.10639 0.38766,-2.02432 0.62505,-4.26207 0.23739,-2.23775 0.66426,-6.08344 0.9486,-8.54598 0.28433,-2.46254 0.73853,-6.49214 1.00933,-8.95468 1.33955,-12.18152 1.38574,-12.47807 2.23077,-14.32386 0.94598,-2.06631 2.42219,-3.36025 4.40138,-3.85794 0.72964,-0.18348 3.6049,-0.43544 6.38947,-0.5599 7.01217,-0.31344 9.67608,0.37283 11.18822,2.88229 0.56454,0.93686 0.66068,1.66875 0.64561,4.91481 -0.01,2.09772 -0.26731,5.60497 -0.57238,7.79389 -0.30508,2.18892 -0.78675,5.84541 -1.07039,8.12553 -0.28363,2.28013 -0.66297,5.1904 -0.84297,6.46727 -0.17999,1.27687 -0.47982,3.59016 -0.66628,5.14065 -0.18645,1.55048 -0.55694,4.57269 -0.82331,6.716 -0.26637,2.14332 -0.71122,5.72519 -0.98857,7.95972 -4.01321,32.33381 -5.11682,40.57889 -5.62383,42.01592 -0.75535,2.14089 -2.04912,3.65536 -3.78557,4.43135 -1.35838,0.60703 -2.36816,0.6996 -9.07639,0.83204 -8.43808,0.16658 -9.92741,-0.0501 -11.55942,-1.68215 -2.14044,-2.14044 -2.26035,-2.62506 -5.80449,-23.45829 -0.63623,-3.73991 -1.30805,-7.62069 -1.49291,-8.62395 -0.18487,-1.00325 -0.43845,-2.55811 -0.56351,-3.45523 -0.29335,-2.10432 -0.94981,-2.35814 -1.19383,-0.46158 -0.95202,7.39929 -1.6621,13.00359 -2.69188,21.24577 -1.4412,11.53513 -1.93508,13.54858 -3.74976,15.28715 -1.62905,1.56073 -3.04587,1.81148 -11.3843,2.01483 -5.34326,0.1303 -8.04808,0.0736 -8.73495,-0.1832 z m 98.16978,-10.75745 c -1.54016,-0.79938 -2.76484,-2.12134 -3.65631,-3.94673 -0.88178,-1.80553 -2.0329,-8.29379 -7.94534,-44.78348 -0.82756,-5.10749 -2.69728,-16.57481 -4.15492,-25.48294 -1.59577,-9.75227 -2.64737,-17.142 -2.64298,-18.57266 0.0126,-4.10853 1.21689,-5.76855 6.02057,-8.29886 1.33614,-0.7038 5.44881,-2.91899 9.13928,-4.92265 4.06423,-2.20658 7.22714,-3.71238 8.02162,-3.81895 3.41953,-0.45865 5.10761,0.62106 14.63073,9.35793 1.19296,1.09446 3.65269,3.33313 5.46607,4.97482 1.81339,1.64169 4.27558,3.88036 5.47153,4.97482 1.19595,1.09446 5.22188,4.75095 8.94652,8.12554 3.72463,3.37459 9.47328,8.59815 12.77476,11.60791 6.21431,5.66521 15.01526,13.64578 17.90761,16.23835 4.5155,4.04751 6.9646,6.81123 7.54514,8.51444 1.6592,4.86782 0.16046,6.80807 -9.1873,11.89376 -9.07879,4.93935 -9.9423,4.85576 -17.26216,-1.67116 -5.42937,-4.84122 -5.10586,-4.66313 -6.85489,-3.77339 -4.65126,2.36612 -24.08085,13.07167 -24.54775,13.52561 -0.5236,0.50907 -0.50724,0.82494 0.25998,5.02059 0.48103,2.63056 0.82208,5.74786 0.82684,7.55762 0.0127,4.83306 -0.6581,5.60151 -8.63038,9.88671 -7.65868,4.11663 -9.86183,4.76925 -12.12862,3.59272 z M 328.819,414.11265 c 2.68769,-1.45928 4.88672,-2.76209 4.88673,-2.89514 0,-0.13305 -0.70399,-0.87928 -1.56444,-1.65828 -0.86046,-0.779 -3.3603,-3.06178 -5.55522,-5.07284 -4.79808,-4.39618 -6.17653,-5.54456 -6.39416,-5.32693 -0.0904,0.0904 0.48268,4.13232 1.2735,8.98206 1.19144,7.30663 1.52602,8.80114 1.95236,8.72104 0.28299,-0.0532 2.71354,-1.29063 5.40123,-2.74991 z m 77.02163,-5.68975 c -0.36482,-0.0883 -1.30886,-0.39854 -2.09787,-0.68946 -1.8531,-0.68326 -65.90766,-44.2642 -68.58245,-46.66159 -4.12751,-3.69945 -4.54658,-7.33768 -1.43523,-12.46032 2.02898,-3.34058 18.90825,-28.0558 22.44115,-32.8591 8.48013,-11.52953 16.20746,-17.78297 24.13699,-19.53314 9.09867,-2.00822 17.93361,0.52053 27.64377,7.91224 8.09496,6.16217 12.50083,14.48094 12.29097,23.2067 -0.0505,2.09888 0.0471,2.84504 0.3959,3.02754 0.25459,0.1332 5.31334,0.42616 11.24166,0.65101 16.79965,0.63719 17.61788,0.78551 21.15169,3.83423 3.90442,3.36846 3.40954,5.88131 -3.00285,15.24748 -6.09953,8.90919 -5.97251,8.86172 -21.88055,8.17635 -5.33516,-0.22985 -12.10103,-0.50508 -15.03526,-0.61162 l -5.33495,-0.1937 -3.86846,5.66848 c -3.69355,5.41217 -4.1276,6.30086 -3.66558,7.50488 0.11159,0.2908 4.60255,3.52806 9.97991,7.19391 12.1031,8.25093 12.51209,8.7342 11.18204,13.21295 -0.51369,1.72979 -7.75293,12.94104 -9.71378,15.04352 -1.69195,1.81416 -4.06698,2.76044 -5.8471,2.32964 z m -27.44335,-54.02125 c 1.01102,-0.70815 10.88125,-15.32958 11.89374,-17.619 0.964,-2.17977 1.12029,-5.15213 0.34844,-6.62647 -1.24752,-2.38295 -4.21197,-4.20001 -6.7701,-4.14975 -3.27199,0.0643 -5.25448,2.10181 -12.797,13.15227 -4.69732,6.882 -5.0752,7.74852 -3.95241,9.06342 0.83761,0.98093 9.38556,6.69018 10.01661,6.69018 0.29241,0 0.85974,-0.22979 1.26072,-0.51065 z m -226.27247,6.31881 c -8.60116,-1.90421 -15.96053,-7.18411 -21.44437,-15.38503 -5.58781,-8.3564 -8.62412,-17.21471 -9.55053,-27.86329 -0.37004,-4.25338 -0.12619,-5.98128 1.12348,-7.96089 2.73116,-4.32644 11.70157,-8.80624 24.56495,-12.26769 5.5301,-1.48811 13.61482,-3.16511 27.52733,-5.70997 14.52994,-2.65779 16.1493,-3.01952 22.88418,-5.11185 22.90947,-7.1173 38.8844,-15.72946 52.932,-28.5359 17.78987,-16.21808 29.74269,-37.28374 36.1213,-63.66022 4.16254,-17.21266 5.99646,-35.88852 6.46467,-65.83344 0.22972,-14.69174 0.50351,-17.94595 1.85121,-22.00263 1.17769,-3.54493 2.24636,-5.43737 3.9289,-6.957445 4.24516,-3.835252 9.22942,-4.785316 22.07745,-4.208252 8.95687,0.402294 14.26791,1.018723 19.07015,2.21339 11.11403,2.764867 17.64776,7.452197 21.85663,15.680047 3.94062,7.70344 5.51369,16.87859 5.88844,34.34503 0.92899,43.3 -8.94791,81.23144 -29.83519,114.57961 -22.59871,36.0806 -57.29037,63.51591 -103.37607,81.75325 -16.95173,6.70825 -43.25486,14.00469 -58.03957,16.10007 -9.28666,1.31616 -20.14423,1.68879 -24.04496,0.82521 z m 306.44892,-49.20043 c -2.51018,-0.947 -4.78097,-2.0484 -29.51727,-14.31661 -12.5863,-6.2423 -28.74469,-14.24269 -35.90755,-17.77865 -11.4515,-5.65306 -13.23924,-6.6393 -14.81182,-8.17128 -2.24389,-2.18596 -2.64371,-3.46799 -2.21532,-7.10336 2.44336,-20.73451 2.48336,-20.9312 4.62328,-22.73182 1.65389,-1.39166 4.24612,-2.17498 14.15089,-4.2761 5.10753,-1.08347 10.555,-2.25911 12.10548,-2.61253 1.55049,-0.35341 6.40094,-1.401 10.77878,-2.32796 7.1821,-1.52073 12.81953,-2.73467 21.55755,-4.64209 1.64169,-0.35837 6.49214,-1.39446 10.77878,-2.30244 4.28664,-0.90797 10.24446,-2.18758 13.23961,-2.84357 6.01854,-1.31817 8.4848,-1.51036 10.4737,-0.8162 2.88339,1.00635 3.97855,2.32775 4.46155,5.3832 0.34059,2.15459 -1.06301,14.42435 -1.86806,16.32989 -1.17404,2.77893 -3.28806,4.11754 -8.18032,5.17982 -4.6463,1.00887 -8.31362,1.9709 -8.60968,2.25854 -0.39074,0.37962 -3.94363,29.60884 -3.63638,29.91609 0.14311,0.14311 2.50635,1.37457 5.25164,2.73658 6.11386,3.03325 8.19103,4.73404 8.94369,7.32312 0.47643,1.63884 0.45438,2.19439 -0.34422,8.6756 -0.76424,6.2023 -0.96433,7.14781 -1.91811,9.06408 -1.32563,2.66336 -2.42618,3.37617 -5.48612,3.55328 -1.61081,0.0932 -2.66244,-0.042 -3.8701,-0.49759 z M 431.3251,267.77004 c 0.35442,-1.30532 1.31855,-11.03324 1.1138,-11.238 -0.37459,-0.37459 -17.21536,3.23731 -17.37868,3.72727 -0.10001,0.30003 14.9604,8.03604 15.71508,8.07229 0.21572,0.0104 0.46313,-0.24234 0.5498,-0.56156 z M 102.87409,225.37045 c -6.426669,-1.20117 -10.023734,-2.55325 -11.685172,-4.39227 -6.01961,-6.66298 -13.025464,-28.53057 -18.665035,-58.25975 -3.051578,-16.08649 -4.14408,-27.55571 -2.999772,-31.49199 2.052044,-7.05879 7.785523,-12.96708 17.124252,-17.64637 9.080157,-4.54973 19.469237,-7.12879 28.994437,-7.19778 7.83091,-0.0567 11.68623,1.17235 14.11286,4.49915 4.09433,5.61316 10.50574,24.46423 17.00981,50.01289 4.57652,17.97707 6.52013,29.50834 6.52013,38.68337 0,4.38008 -0.43471,6.34189 -2.15949,9.74558 -4.61131,9.09998 -21.39545,15.60465 -41.4531,16.0651 -3.28338,0.0754 -6.34289,0.0673 -6.79892,-0.0179 z m 96.99188,-8.4538 c -1.28628,-0.15047 -3.54616,-0.65502 -5.02197,-1.12123 -2.17492,-0.68705 -2.91304,-1.10196 -3.89604,-2.19002 -6.40807,-7.09297 -15.74575,-32.31652 -23.56514,-63.65567 -3.72282,-14.9206 -5.57149,-24.88596 -5.56804,-30.01475 0.007,-9.95937 6.45147,-17.54586 18.76938,-22.094472 8.73777,-3.226582 23.06354,-5.076556 29.41439,-3.798461 4.04861,0.814773 8.27066,2.99053 11.40186,5.87573 5.81873,5.361603 8.44482,10.651223 13.92948,28.057573 9.0023,28.57004 16.10793,59.48374 15.34667,66.76708 -0.71193,6.81135 -6.21952,12.47494 -16.08841,16.54408 -9.1585,3.77623 -26.51371,6.59035 -34.72218,5.63014 z" id="path1"/></g></g></svg>